<?xml version="1.0" encoding="UTF-8"?>
<svg xmlns="http://www.w3.org/2000/svg" version="1.1" viewBox="0 0 512 512">
  <defs>
    <style>
      .cls-1 {
        fill: none;
        stroke: #221afb;
        stroke-miterlimit: 10;
        stroke-width: 28px;
      }
    </style>
  </defs>
  <!-- Generator: Adobe Illustrator 28.6.0, SVG Export Plug-In . SVG Version: 1.2.0 Build 709)  -->
  <g>
    <g id="Layer_1">
      <path class="cls-1" d="M307.4,68.3c0,28.4-23,51.3-51.3,51.3s-51.3-23-51.3-51.3,23-51.3,51.3-51.3,51.3,23,51.3,51.3Z"/>
      <path class="cls-1" d="M52.4,160c-6,17.9,3.7,37.3,21.6,43.3,6,2,12,3.8,18.1,5.7,11.1,3.3,26.6,7.8,44.3,12.2,19.9,5,43.6,10.2,67.5,13.8-1.6,30.6-5.4,52.5-9,67l-72.3,144.5c-8.5,16.9-1.6,37.5,15.3,45.9,16.9,8.5,37.5,1.6,45.9-15.3l72.1-144.2,72.1,144.2c8.5,16.9,29,23.8,45.9,15.3,16.9-8.5,23.8-29,15.3-45.9l-72.3-144.5c-3.6-14.5-7.4-36.5-9-67,23.9-3.6,47.6-8.8,67.5-13.8,17.7-4.4,33.2-8.9,44.3-12.2,6-1.8,12-3.6,18-5.6,17.6-5.8,27.6-25.7,21.8-43.3-6-17.9-25.4-27.6-43.3-21.7-5.3,1.8-10.7,3.4-16.1,5-10.3,3.1-24.8,7.2-41.3,11.3-33.7,8.4-73.1,16.1-103,16.1s-69.2-7.7-103-16.1c-16.5-4.1-30.9-8.3-41.3-11.3-5.3-1.6-10.6-3.2-15.9-5-17.8-5.9-37.5,3.7-43.5,21.6Z"/>
    </g>
  </g>
</svg>