<?xml version="1.0" encoding="UTF-8"?>
<svg xmlns="http://www.w3.org/2000/svg" version="1.1" viewBox="0 0 512 512">
  <defs>
    <style>
      .cls-1 {
        fill: #fff;
      }

      .cls-2 {
        fill: #221afb;
      }
    </style>
  </defs>
  <!-- Generator: Adobe Illustrator 28.6.0, SVG Export Plug-In . SVG Version: 1.2.0 Build 709)  -->
  <g>
    <g id="Layer_1">
      <path class="cls-2" d="M390.3,110.4v1.5h68.7v318.9c0,37.1-30.1,67.1-67.1,67.1H117.2c-37.1,0-67.1-30.1-67.1-67.1V77.6h340.2v32.8ZM82.9,108.9h-1.5v322c0,19.8,16,35.9,35.9,35.9h274.6c19.8,0,35.9-16,35.9-35.9V143.2h-37.4v286.1h-31.3V108.9H82.9ZM118.8,329.4h202.9v31.3H118.8v-31.3ZM118.8,398.1h202.9v31.3H118.8v-31.3Z"/>
      <rect class="cls-1" x="273.2" y="63.8" width="187.3" height="124.1"/>
      <path class="cls-2" d="M406.6,162.4c-2.6,2-5.8,3.1-9,3.1-3.9,0-7.7-1.6-10.4-4.4-2.8-2.8-4.3-6.5-4.3-10.4V15.7c.1-1.9.5-3.9,1.3-5.7.8-1.8,1.9-3.4,3.2-4.8s3-2.4,4.8-3.2c1.8-.7,3.7-1.1,5.7-1.1,1.9,0,3.9.4,5.7,1.2,1.8.8,3.4,1.9,4.8,3.2,1.4,1.4,2.4,3,3.2,4.8.7,1.8,1.1,3.7,1.1,5.7l-.2,134.9c0,2.2-.5,4.5-1.5,6.5-1,2-2.4,3.8-4.2,5.1Z"/>
      <path class="cls-2" d="M318.5,92.1c-2-2.6-3.1-5.8-3.1-9,0-3.9,1.6-7.7,4.4-10.4,2.8-2.8,6.5-4.3,10.4-4.3h135c1.9.1,3.9.5,5.7,1.3,1.8.8,3.4,1.9,4.8,3.2,1.4,1.4,2.4,3,3.2,4.8.7,1.8,1.1,3.7,1.1,5.7,0,1.9-.4,3.9-1.2,5.7-.8,1.8-1.9,3.4-3.2,4.8-1.4,1.4-3,2.4-4.8,3.2-1.8.7-3.7,1.1-5.7,1.1l-134.9-.2c-2.2,0-4.5-.5-6.5-1.5-2-1-3.8-2.4-5.1-4.2Z"/>
      <path class="cls-2" d="M186.7,258.2h1.5v-37.4h-37.4v37.4h35.9ZM119.6,189.5h99.9v99.9h-99.9v-99.9Z"/>
      <rect class="cls-1" x="359.1" y="180.3" width="38.5" height="110.6"/>
    </g>
  </g>
</svg>