<svg width="174" height="63" viewBox="0 0 174 63" fill="none" xmlns="http://www.w3.org/2000/svg">
<g clip-path="url(#clip0_226_194)">
<path d="M158.514 25.4024C160.466 26.5332 162.367 27.6338 164.268 28.7356C165.67 29.5487 167.079 30.3513 168.472 31.1797C171.016 32.6919 172.491 34.9437 172.98 37.8587C173.034 38.1775 173.035 38.5077 173.036 38.8326C173.04 42.0919 173.05 45.3514 173.034 48.6107C173.023 50.8216 172.192 52.725 170.777 54.3899C170.019 55.2823 169.082 55.9408 168.075 56.5196C165.608 57.9374 163.146 59.3653 160.689 60.8016C159.073 61.7468 157.333 62.1795 155.473 62.0797C154.11 62.0065 152.806 61.6533 151.618 60.9698C148.448 59.1475 145.286 57.3113 142.133 55.4594C141.671 55.1878 141.327 55.1334 140.824 55.4314C137.74 57.2576 134.626 59.033 131.528 60.8338C129.925 61.7653 128.197 62.1771 126.357 62.0804C124.764 61.9965 123.307 61.4614 121.935 60.6534C119.435 59.1823 116.902 57.7688 114.422 56.2662C111.491 54.4903 109.911 51.8648 109.869 48.3964C109.831 45.2823 109.861 42.1675 109.861 39.0529C109.86 36.8251 110.625 34.8835 112.032 33.1829C112.766 32.2955 113.667 31.6189 114.66 31.0463C117.765 29.2553 120.857 27.4421 123.965 25.658C124.301 25.4655 124.393 25.2509 124.392 24.8887C124.381 21.1947 124.336 17.4999 124.4 13.807C124.457 10.4801 125.903 7.83801 128.724 6.07372C130.984 4.66064 133.324 3.37948 135.632 2.0442C136.239 1.69256 136.847 1.3394 137.471 1.01818C138.458 0.509846 139.513 0.249917 140.619 0.139296C142.668 -0.0658638 144.533 0.444649 146.291 1.46914C148.749 2.90222 151.204 4.3429 153.679 5.74663C155.707 6.8974 157.135 8.54781 157.961 10.7289C158.323 11.6832 158.506 12.6786 158.509 13.6959C158.522 17.3899 158.514 21.0839 158.514 24.7778C158.514 24.9752 158.514 25.1729 158.514 25.4024ZM141.421 49.2788C141.494 49.2586 141.513 49.2573 141.528 49.2486C144.643 47.4439 147.781 45.6765 150.865 43.8183C152.567 42.7932 153.467 41.2143 153.468 39.1779C153.47 35.7208 153.464 32.2635 153.476 28.8065C153.478 28.4557 153.375 28.2612 153.065 28.0828C150.083 26.3702 147.126 24.6146 144.133 22.9223C142.331 21.9038 140.477 21.9454 138.681 22.9716C135.743 24.6509 132.824 26.3656 129.888 28.0486C129.549 28.2429 129.418 28.4522 129.42 28.8506C129.437 32.2533 129.432 35.6563 129.429 39.059C129.426 41.2482 130.421 42.8554 132.259 43.9655C133.075 44.4588 133.909 44.9239 134.735 45.4025C136.962 46.6934 139.188 47.9846 141.421 49.2788ZM124.385 31.238C124.144 31.3664 124.001 31.4373 123.863 31.5175C121.62 32.8201 119.387 34.1402 117.132 35.422C115.631 36.2757 114.857 37.5555 114.841 39.2646C114.814 42.2523 114.818 45.2403 114.84 48.228C114.852 49.8786 115.597 51.1411 117.021 51.9726C119.635 53.498 122.246 55.028 124.876 56.5241C126.172 57.2613 127.542 57.2922 128.843 56.5622C131.261 55.2052 133.646 53.7875 136.044 52.3929C136.141 52.3364 136.225 52.256 136.336 52.1701C136.19 52.0708 136.091 51.9932 135.982 51.9306C133.94 50.749 131.9 49.5628 129.852 48.3912C128.206 47.4497 126.875 46.1862 125.896 44.5555C124.867 42.8423 124.386 40.9761 124.385 38.9806C124.383 36.6265 124.384 34.2725 124.384 31.9184C124.385 31.7215 124.385 31.5248 124.385 31.238ZM146.531 52.1717C146.721 52.2992 146.86 52.4051 147.011 52.4924C149.301 53.819 151.592 55.1443 153.884 56.4672C155.279 57.2726 156.699 57.2835 158.087 56.4913C160.729 54.9833 163.356 53.4474 165.979 51.9046C167.348 51.0989 168.044 49.8577 168.058 48.2758C168.083 45.2534 168.088 42.2303 168.056 39.2081C168.039 37.5679 167.306 36.3087 165.864 35.48C163.835 34.3138 161.817 33.1274 159.793 31.9523C159.395 31.7209 158.989 31.5014 158.514 31.2358C158.514 31.5196 158.514 31.7141 158.514 31.9089C158.514 34.3343 158.52 36.7595 158.509 39.1849C158.507 39.6704 158.48 40.1618 158.402 40.6399C157.86 43.9309 156.2 46.4787 153.343 48.2036C152.095 48.9571 150.824 49.6732 149.564 50.4065C148.569 50.9846 147.576 51.5634 146.531 52.1717ZM129.43 22.473C129.645 22.3642 129.788 22.3005 129.923 22.2227C132.013 21.0178 134.088 19.7873 136.193 18.6104C139.679 16.6618 143.204 16.682 146.69 18.5863C148.822 19.7508 150.897 21.0191 152.999 22.2385C153.131 22.315 153.275 22.3724 153.442 22.453C153.454 22.2994 153.467 22.2101 153.467 22.1205C153.468 19.2611 153.47 16.4017 153.465 13.5421C153.465 13.3458 153.431 13.1463 153.388 12.954C153.11 11.7169 152.39 10.8117 151.307 10.185C148.737 8.69689 146.169 7.20492 143.593 5.72621C142.161 4.90405 140.716 4.9223 139.284 5.7386C138.517 6.17521 137.757 6.62161 136.994 7.06453C135.142 8.14009 133.276 9.19459 131.441 10.2991C130.127 11.0897 129.432 12.2796 129.43 13.8424C129.428 16.5028 129.43 19.1631 129.43 21.8236C129.43 22.0156 129.43 22.2077 129.43 22.473Z" fill="white"/>
<path d="M30.3252 28.3955C30.3111 27.6661 30.3124 26.9631 30.2776 26.2617C30.2616 25.9418 30.2151 25.6117 30.1126 25.3101C29.6847 24.0511 28.3105 23.6068 27.221 24.3582C27.1038 24.439 26.9933 24.5296 26.8409 24.645C26.3474 24.2343 25.8535 23.8235 25.3296 23.3876C25.9126 22.734 26.6255 22.3954 27.4314 22.2409C28.3714 22.0605 29.2961 22.1351 30.1686 22.5428C31.4654 23.1485 32.1807 24.2049 32.3626 25.6104C32.4432 26.2344 32.432 26.8714 32.4432 27.5027C32.4571 28.2831 32.5669 28.4064 33.3436 28.4383C33.4144 28.4411 33.4846 28.455 33.6183 28.4716C33.6239 28.7547 33.6319 29.0377 33.6347 29.3207C33.6375 29.6086 33.6353 29.8966 33.6353 30.1741C33.2373 30.3067 13.5236 30.356 12.5691 30.2298C12.5691 28.1823 12.5691 26.1266 12.5691 24.0874C10.9532 23.606 9.66848 24.5275 9.63756 26.1603C9.61528 27.3369 9.63388 28.5144 9.63172 29.6914C9.63128 29.8683 9.6168 30.0455 9.60728 30.2571C9.40121 30.2669 9.22605 30.2824 9.0509 30.2824C7.33915 30.2841 5.6274 30.2841 3.91565 30.2832C1.75477 30.2821 0.104868 28.6083 0.0449694 26.38C0.0177232 25.3683 0.267263 24.4492 0.886356 23.6418C0.930036 23.5849 0.978258 23.5308 1.02951 23.4806C1.05416 23.4564 1.0907 23.4449 1.18023 23.3952C1.65336 23.787 2.1453 24.1947 2.63703 24.602C2.49734 24.966 2.31397 25.3035 2.24066 25.6634C2.06097 26.5447 2.20196 27.3753 2.903 27.9963C3.14476 28.2103 3.49853 28.4014 3.8084 28.4138C5.01177 28.4616 6.21817 28.4333 7.48446 28.4333C7.49268 28.216 7.50111 28.0247 7.50695 27.8335C7.53117 27.0213 7.47733 26.1979 7.59366 25.3996C7.85077 23.6355 9.23016 22.3474 10.9869 22.2181C12.133 22.1338 13.287 22.1594 14.4376 22.1392C14.5051 22.1381 14.5732 22.1668 14.6973 22.194C14.6973 24.2549 14.6973 26.3096 14.6973 28.3998C17.1251 28.3998 19.4922 28.3998 21.9003 28.3998C21.8574 27.5112 21.8501 26.6306 21.7632 25.7578C21.6793 24.9145 21.1119 24.1639 20.1072 24.0128C19.6168 23.9391 19.1821 24.0667 18.7793 24.3327C18.6597 24.4116 18.5555 24.5138 18.3877 24.6518C17.8916 24.2395 17.3886 23.8211 16.8669 23.3873C17.4306 22.7536 18.1007 22.4111 18.8528 22.259C20.0973 22.0073 21.29 22.152 22.3479 22.9177C23.3828 23.6668 23.8758 24.7181 23.9364 25.9788C23.9634 26.5388 23.9316 27.1015 23.9444 27.6627C23.9558 28.1584 24.1967 28.4292 24.6547 28.4314C26.4925 28.44 28.3306 28.4344 30.1684 28.4311C30.2363 28.4314 30.3044 28.4005 30.3252 28.3955Z" fill="white"/>
<path d="M87.2676 28.3023C87.6789 28.46 89.4739 28.4946 90.1583 28.3699C90.0938 28.2169 90.0274 28.0723 89.971 27.9241C89.412 26.4558 89.5178 25.0573 90.4126 23.7446C90.8226 23.1433 91.3852 22.728 92.051 22.4646C93.0918 22.0529 94.1593 22.0232 95.2098 22.4013C96.5239 22.8742 97.3748 23.8018 97.6765 25.186C97.9677 26.523 97.7887 27.7785 96.9103 28.8719C96.1911 29.7671 95.2353 30.253 94.1029 30.2728C92.0322 30.3089 89.9602 30.2813 87.8888 30.2845C87.3679 30.2854 86.9564 30.0631 86.6091 29.693C86.536 29.6152 86.4658 29.5345 86.3501 29.4063C85.5007 30.3071 84.4106 30.3013 83.2953 30.2915C80.5395 30.2669 77.7835 30.2815 75.0276 30.2856C74.6334 30.2863 74.242 30.3043 73.9126 30.0046C73.4953 32.4909 72.3155 33.5823 69.8223 33.7901C69.8223 33.2181 69.8223 32.6474 69.8223 32.0386C69.9101 32.0047 70.0199 31.9473 70.1367 31.9195C71.1173 31.6859 71.6984 30.98 71.7265 29.9455C71.7438 29.3124 71.7301 28.6782 71.7301 28.0447C71.7301 26.5421 71.7301 25.0395 71.7301 23.5371C71.7301 23.3428 71.7301 23.1485 71.7301 22.9257C72.4686 22.9257 73.1433 22.9257 73.8919 22.9257C73.8919 23.1357 73.8919 23.3278 73.8919 23.5201C73.8919 24.896 73.8917 26.2718 73.8923 27.6477C73.8923 27.7744 73.8841 27.9028 73.9016 28.0271C73.9356 28.266 74.0536 28.4331 74.3205 28.4338C75.0553 28.4351 75.7903 28.4342 76.5774 28.4342C76.5774 26.6623 76.5774 24.9328 76.5774 23.1385C77.244 23.092 77.8603 23.1083 78.5317 23.1274C78.5317 23.7379 78.5317 24.3071 78.5317 24.9582C78.8565 24.8067 79.0163 24.5885 79.19 24.4021C79.7784 23.7701 80.4718 23.2876 81.2626 22.964C82.6403 22.4002 84.0497 22.2585 85.4408 22.8892C86.7201 23.4693 87.4036 24.5162 87.6298 25.9016C87.7478 26.6253 87.6371 27.2986 87.3731 27.9639C87.3335 28.063 87.3089 28.1675 87.2676 28.3023ZM78.9625 28.3627C79.0094 28.3907 79.0379 28.4231 79.0667 28.4231C80.6859 28.4283 82.3058 28.4529 83.9245 28.4246C84.7257 28.4107 85.2905 27.8802 85.4747 27.0863C85.6384 26.3813 85.5089 25.7193 85.1149 25.1221C84.7218 24.5262 84.1152 24.2854 83.4395 24.3251C82.6753 24.3701 81.9732 24.6583 81.3482 25.1138C80.269 25.9003 79.5647 26.98 78.9964 28.1643C78.9675 28.2245 78.9722 28.3012 78.9625 28.3627ZM91.8032 26.2053C91.803 26.7927 91.9027 27.1654 92.1094 27.5583C92.7231 28.7239 94.5711 28.7132 95.2109 27.7207C95.7777 26.8416 95.8451 25.934 95.377 25.0078C94.7942 23.855 93.2782 23.647 92.3749 24.5718C91.9291 25.0286 91.7777 25.5846 91.8032 26.2053Z" fill="white"/>
<path d="M56.2147 23.3563C56.7609 23.8079 57.2433 24.2069 57.7375 24.6153C57.6254 24.863 57.5033 25.0819 57.4246 25.3155C57.0935 26.2987 57.1992 27.2171 57.9561 27.9639C58.1842 28.189 58.5397 28.3901 58.8478 28.4077C59.8296 28.4637 60.8165 28.4285 61.8536 28.4285C61.7768 28.2403 61.7193 28.1125 61.6717 27.9808C61.0742 26.3293 61.1966 24.7846 62.3769 23.4152C62.8861 22.8242 63.5437 22.4613 64.3029 22.294C65.7307 21.979 67.0526 22.1727 68.1924 23.1581C68.7966 23.6803 69.1882 24.3479 69.3614 25.1247C69.6618 26.4732 69.5019 27.7455 68.6164 28.8565C67.9013 29.7536 66.9521 30.2558 65.8168 30.2726C63.4756 30.3069 61.1333 30.3084 58.792 30.275C56.8984 30.2478 55.2663 28.6144 55.1549 26.7129C55.0967 25.7184 55.199 24.7591 55.7837 23.9115C55.9046 23.7359 56.045 23.5736 56.2147 23.3563ZM63.4767 26.2333C63.439 26.6832 63.5744 27.1474 63.8233 27.5764C64.3998 28.5698 65.8386 28.768 66.6673 27.9754C67.4665 27.2111 67.6109 25.7636 66.9804 24.8365C66.5217 24.1621 65.7504 23.8644 64.9598 24.0565C64.0413 24.2799 63.4829 25.0788 63.4767 26.2333Z" fill="white"/>
<path d="M59.5308 48.9647C59.4899 49.1049 59.4564 49.2192 59.4205 49.3422C58.729 49.3422 58.0526 49.3422 57.3457 49.3422C57.3457 45.229 57.3457 41.1463 57.3457 37.0242C58.0418 37.0242 58.7301 37.0242 59.4761 37.0242C59.4761 38.5214 59.4761 39.9946 59.4761 41.5383C59.6253 41.4614 59.7051 41.4303 59.7741 41.3832C61.0769 40.4915 62.9588 40.7423 64.1293 41.6346C65.3362 42.5548 65.9832 43.7755 65.9622 45.316C65.9313 47.5929 64.2692 49.2266 62.5298 49.553C61.6078 49.7263 60.7004 49.6893 59.8766 49.1495C59.7734 49.0821 59.6584 49.0323 59.5308 48.9647ZM63.818 44.998C63.7507 44.7757 63.6783 44.3219 63.483 43.9298C62.793 42.5454 60.9236 42.4333 60.0839 43.4448C59.3589 44.318 59.262 45.2923 59.6368 46.3294C60.2213 47.9474 62.1897 47.9848 63.0618 47.1348C63.5954 46.6147 63.7868 45.9521 63.818 44.998Z" fill="white"/>
<path d="M43.45 28.4355C44.1465 28.4355 44.8302 28.4346 45.5142 28.4357C45.9296 28.4364 46.2079 28.2301 46.3125 27.8383C46.3861 27.5633 46.4248 27.2706 46.4259 26.9857C46.4345 24.5955 46.4308 22.2053 46.4308 19.8153C46.4308 19.6201 46.4308 19.425 46.4308 19.1979C47.1254 19.1979 47.7648 19.1979 48.4425 19.1979C48.4563 19.3346 48.4823 19.4721 48.4825 19.6099C48.4849 22.1812 48.4855 24.7524 48.4834 27.3236C48.4829 27.8511 48.4267 28.3729 48.2046 28.8584C47.7882 29.7695 47.0549 30.2309 46.0768 30.2765C45.3758 30.3093 44.6713 30.2982 43.9696 30.2745C43.7283 30.2665 43.4902 30.1615 43.2149 30.092C43.0577 31.1943 42.6631 32.1923 41.7566 32.9266C40.9937 33.5449 40.1112 33.7729 39.1172 33.8049C39.1172 33.2218 39.1172 32.6506 39.1172 32.0382C39.2426 32.0006 39.3899 31.9465 39.5417 31.9123C40.2388 31.755 40.694 31.3171 40.8953 30.6483C41.0132 30.2572 41.0841 29.8366 41.088 29.4285C41.1075 27.4732 41.0966 25.5174 41.0966 23.5619C41.0966 23.365 41.0966 23.1681 41.0966 22.9327C41.7931 22.9327 42.4492 22.9327 43.1596 22.9327C43.1686 23.1268 43.1851 23.3191 43.1853 23.5114C43.1875 24.8695 43.1879 26.2276 43.1855 27.5855C43.1849 27.8787 43.1842 28.1677 43.45 28.4355Z" fill="white"/>
<path d="M73.4763 41.5416C73.5141 41.3936 73.5435 41.2786 73.5794 41.1391C74.255 41.1391 74.932 41.1391 75.6032 41.1391C75.7172 41.5588 75.7626 48.0917 75.6595 49.3459C75.3191 49.3546 74.9692 49.3668 74.6191 49.3714C74.2785 49.3757 73.9378 49.3722 73.5894 49.3722C73.5531 49.2268 73.5239 49.1097 73.4919 48.9819C73.4318 48.9915 73.3697 48.9832 73.3323 49.0099C70.8356 50.7862 67.0443 48.7172 67.0371 45.3201C67.0334 43.5673 67.7375 42.2336 69.2469 41.3882C70.5724 40.6455 71.9404 40.5658 73.2741 41.4301C73.3297 41.467 73.3911 41.4953 73.4763 41.5416ZM69.1532 45.2314C69.1718 45.2351 69.1904 45.2388 69.2088 45.2427C69.2088 45.3692 69.201 45.4964 69.2101 45.6222C69.2806 46.5934 69.933 47.3928 70.8377 47.621C71.7764 47.8576 72.7171 47.4919 73.2062 46.6476C73.6357 45.9065 73.6674 45.1045 73.4199 44.291C73.1537 43.4161 72.3527 42.803 71.4584 42.7804C70.4846 42.7558 69.6889 43.2755 69.3758 44.1835C69.2603 44.5184 69.225 44.8813 69.1532 45.2314Z" fill="white"/>
<path d="M8.86341 41.5646C8.89844 41.4049 8.92396 41.2886 8.95553 41.1441C9.62544 41.1441 10.301 41.1441 11.0079 41.1441C11.0079 43.8799 11.0079 46.586 11.0079 49.3327C10.3369 49.3327 9.67907 49.3327 8.9804 49.3327C8.9458 49.2301 8.90277 49.1021 8.84049 48.9174C7.7074 49.7702 6.4651 49.8386 5.19924 49.3785C3.92105 48.9139 3.04809 47.9748 2.63745 46.6904C2.0748 44.9306 2.41408 43.3202 3.74806 42.0058C4.43094 41.333 5.28357 40.9737 6.25276 40.8572C7.21827 40.7409 8.05576 41.015 8.86341 41.5646ZM8.98105 45.2564C8.88698 44.857 8.83725 44.4401 8.68956 44.0618C8.38617 43.2839 7.76059 42.8727 6.95532 42.7912C6.17448 42.7121 5.49549 42.9725 5.03274 43.6419C4.46619 44.4612 4.41581 45.3544 4.74168 46.2764C5.0269 47.0826 5.60988 47.556 6.44716 47.659C7.36574 47.772 8.1135 47.4571 8.5903 46.6239C8.82795 46.2083 8.93953 45.7552 8.98105 45.2564Z" fill="white"/>
<path d="M29.1999 41.4675C29.2218 41.3829 29.2479 41.2821 29.283 41.1478C29.9501 41.1478 30.6267 41.1478 31.3052 41.1478C31.4222 41.506 31.465 48.5092 31.3487 49.3366C30.6792 49.3366 30.0035 49.3366 29.2959 49.3366C29.2639 49.2292 29.2291 49.1136 29.1906 48.9847C29.1435 48.9936 29.0844 48.988 29.0483 49.0143C26.9192 50.5628 23.4216 49.2188 22.8405 46.1055C22.5456 44.5253 22.9331 43.1133 24.1209 42.0054C25.1688 41.028 26.4295 40.6227 27.8502 40.9307C28.2967 41.0274 28.7121 41.2688 29.1999 41.4675ZM27.1136 47.6701C28.0815 47.6699 28.7945 47.1544 29.1208 46.2438C29.3621 45.57 29.3628 44.9061 29.124 44.233C28.8304 43.4048 28.248 42.8984 27.3935 42.798C26.5326 42.6969 25.7976 42.9831 25.3104 43.7597C24.9701 44.3023 24.8565 44.9043 24.9225 45.5248C25.0845 47.0514 26.0908 47.7062 27.1136 47.6701Z" fill="white"/>
<path d="M37.9944 37.007C38.6775 37.007 39.3208 37.007 40.0415 37.007C40.0447 37.7455 40.0493 38.479 40.051 39.2127C40.0527 39.9357 40.0514 40.6586 40.0514 41.4421C40.198 41.3723 40.3101 41.3351 40.4043 41.2717C41.9409 40.2378 44.687 41.0696 45.1984 43.2433C45.3134 43.7321 45.401 44.2387 45.4111 44.739C45.4395 46.1503 45.4215 47.5627 45.42 48.9747C45.4198 49.0808 45.4047 49.1866 45.3934 49.332C44.7032 49.332 44.0289 49.332 43.2894 49.332C43.2797 49.1536 43.2611 48.9639 43.2606 48.7741C43.2581 47.4525 43.2661 46.1312 43.2544 44.8098C43.2516 44.4875 43.2126 44.1606 43.1469 43.8449C43.0234 43.252 42.6411 42.9069 42.0491 42.7982C41.127 42.6287 40.3421 43.1468 40.1673 44.0668C40.0971 44.4369 40.0605 44.8185 40.0562 45.1956C40.0424 46.3902 40.051 47.5851 40.051 48.7798C40.051 48.9563 40.051 49.1325 40.051 49.3409C39.3387 49.3409 38.6829 49.3409 37.9941 49.3409C37.9944 45.2327 37.9944 41.15 37.9944 37.007Z" fill="white"/>
<path d="M87.4043 37.0066C88.0878 37.0066 88.7314 37.0066 89.4508 37.0066C89.454 37.765 89.4586 38.5172 89.4603 39.2692C89.462 40.0477 89.4607 40.8264 89.4607 41.6048C89.4607 42.3629 89.4607 43.1212 89.4607 43.9805C89.6287 43.8553 89.7421 43.7901 89.8316 43.701C90.5482 42.9873 91.2696 42.2779 91.9695 41.5481C92.2632 41.2419 92.5707 41.0828 93.0099 41.105C93.7064 41.1404 94.4061 41.1143 95.1575 41.211C94.0223 42.3235 92.887 43.4358 91.717 44.5825C92.9476 46.1544 94.1652 47.7101 95.4668 49.3729C94.924 49.3729 94.5019 49.3779 94.0798 49.3714C93.6674 49.3651 93.2015 49.4624 92.8589 49.3005C92.5372 49.1484 92.343 48.7196 92.0984 48.4079C91.4875 47.6284 90.8799 46.8462 90.2407 46.026C90.0007 46.2622 89.7641 46.4589 89.5773 46.6952C89.4891 46.8066 89.4692 46.9938 89.4657 47.1479C89.4529 47.6907 89.4607 48.2341 89.4607 48.7774C89.4607 48.9541 89.4607 49.1308 89.4607 49.3398C88.7497 49.3398 88.0939 49.3398 87.4043 49.3398C87.4043 45.233 87.4043 41.1497 87.4043 37.0066Z" fill="white"/>
<path d="M77.8242 41.1167C78.4589 41.1167 79.0678 41.1039 79.6752 41.128C79.7883 41.1326 79.8958 41.2849 79.9834 41.3519C80.3918 41.2054 80.815 41.0059 81.26 40.9024C82.7032 40.5673 84.8204 41.4816 85.1281 43.6247C85.164 43.8742 85.2133 44.125 85.2153 44.3756C85.2274 45.9856 85.2285 47.5958 85.2311 49.206C85.2311 49.2386 85.2066 49.2714 85.1798 49.3383C84.5181 49.3383 83.8428 49.3383 83.1082 49.3383C83.0996 49.1425 83.084 48.9508 83.0836 48.7594C83.0814 47.4199 83.0907 46.0805 83.0767 44.7413C83.073 44.4019 83.0284 44.0557 82.9489 43.7258C82.8338 43.2489 82.5147 42.9614 82.0296 42.8404C81.0306 42.5911 80.2275 43.0703 80.0197 44.0831C79.9514 44.4162 79.9183 44.7622 79.9148 45.1028C79.9025 46.3153 79.9101 47.5282 79.9101 48.7409C79.9101 48.9204 79.9101 49.0999 79.9101 49.3261C79.2073 49.3261 78.5361 49.3261 77.8242 49.3261C77.8242 46.6204 77.8242 43.9157 77.8242 41.1167Z" fill="white"/>
<path d="M31.7129 53.6993C31.7129 53.0725 31.7129 52.4996 31.7129 52.006C32.1413 51.7959 32.5623 51.6646 32.891 51.4121C33.509 50.937 33.6744 50.2339 33.6735 49.4789C33.6705 46.9114 33.6724 44.3436 33.6724 41.7761C33.6724 41.5805 33.6724 41.3849 33.6724 41.1528C34.3914 41.1528 35.0626 41.1528 35.7676 41.1528C35.7784 41.3273 35.7966 41.4851 35.7968 41.6429C35.7985 44.3732 35.8128 47.1037 35.7931 49.8338C35.7791 51.7833 34.2505 53.4985 32.1432 53.716C32.0208 53.7286 31.8954 53.7073 31.7129 53.6993Z" fill="white"/>
<path d="M13.1641 36.985C13.6826 36.985 14.1655 36.985 14.6481 36.985C14.8421 36.985 15.036 36.985 15.2596 36.985C15.2596 41.1187 15.2596 45.1997 15.2596 49.3266C14.5729 49.3266 13.8859 49.3266 13.1641 49.3266C13.1641 45.2353 13.1641 41.1561 13.1641 36.985Z" fill="white"/>
<path d="M50.3613 19.1844C51.0637 19.1844 51.7275 19.1844 52.3905 19.1844C52.5071 19.5582 52.541 29.508 52.4197 30.2837C52.0945 30.2837 51.7574 30.2837 51.4202 30.2837C51.0801 30.2837 50.7397 30.2837 50.3613 30.2837C50.3613 26.5773 50.3613 22.9123 50.3613 19.1844Z" fill="white"/>
<path d="M38.2846 30.2595C37.61 30.2595 36.9669 30.2595 36.3238 30.2595C36.2098 29.8901 36.1715 20.015 36.2855 19.1979C36.9362 19.1979 37.592 19.1979 38.2848 19.1979C38.2846 22.8703 38.2846 26.5336 38.2846 30.2595Z" fill="white"/>
<path d="M19.4001 49.3798C18.6666 49.3798 17.9922 49.3798 17.2745 49.3798C17.2613 49.2021 17.2401 49.0454 17.2399 48.8884C17.2373 47.4419 17.2204 45.9949 17.2481 44.549C17.2576 44.0502 17.3268 43.538 17.4639 43.0597C17.761 42.0223 18.4664 41.3673 19.5147 41.1163C20.3401 40.9187 21.1739 40.8364 22.0395 41.0472C22.0395 41.6261 22.0395 42.1982 22.0395 42.8341C21.7813 42.8406 21.5366 42.8449 21.292 42.8534C21.0587 42.8617 20.8238 42.8604 20.5925 42.8877C19.7777 42.9845 19.4066 43.4098 19.4021 44.2689C19.3949 45.6611 19.4001 47.0535 19.4001 48.4457C19.4001 48.7481 19.4001 49.0506 19.4001 49.3798Z" fill="white"/>
<path d="M47.5693 41.146C48.2597 41.146 48.9192 41.146 49.6075 41.146C49.6075 43.8844 49.6075 46.5908 49.6075 49.3351C48.9279 49.3351 48.2694 49.3351 47.6073 49.3351C47.4886 48.9786 47.4484 41.9823 47.5693 41.146Z" fill="white"/>
<path d="M48.5785 39.6287C47.7827 39.628 47.2527 39.1012 47.2598 38.3177C47.2665 37.5897 47.8355 37.0379 48.5655 37.0174C49.2369 36.9987 49.9105 37.5818 49.9118 38.331C49.9129 39.0008 49.2968 39.7393 48.5785 39.6287Z" fill="white"/>
<path d="M34.7498 39.6287C33.9904 39.7421 33.375 38.9447 33.4117 38.3329C33.4556 37.6001 33.9852 37.0316 34.7105 37.0213C35.4915 37.0103 36.0466 37.5475 36.0503 38.3179C36.0542 39.1353 35.5672 39.6263 34.7498 39.6287Z" fill="white"/>
<path d="M4.07919 34.5212C3.35976 34.5201 2.85419 34.0148 2.85744 33.3C2.86068 32.5882 3.37252 32.0901 4.09541 32.0953C4.75753 32.1001 5.29618 32.6306 5.30656 33.2885C5.31716 33.9624 4.75969 34.5223 4.07919 34.5212Z" fill="white"/>
<path d="M8.7675 33.2876C8.77637 33.9891 8.25718 34.5168 7.55418 34.5212C6.86719 34.5255 6.3147 33.9805 6.31838 33.302C6.32184 32.6458 6.85595 32.1064 7.5131 32.0956C8.22345 32.0838 8.75885 32.5926 8.7675 33.2876Z" fill="white"/>
<path d="M61.9984 20.6829C61.983 21.3946 61.4859 21.8313 60.7174 21.8074C60.0453 21.7867 59.5594 21.2538 59.5849 20.5657C59.6098 19.8992 60.1493 19.3859 60.8095 19.3798C61.482 19.3737 62.0767 19.9468 61.9984 20.6829Z" fill="white"/>
<path d="M29.9953 33.3013C30.0905 33.9505 29.4162 34.5746 28.7982 34.531C28.1106 34.4825 27.5756 33.9755 27.5821 33.2863C27.5884 32.6219 28.1136 32.1358 28.7846 32.0864C29.4632 32.0367 30.0924 32.7143 29.9953 33.3013Z" fill="white"/>
</g>
<defs>
<clipPath id="clip0_226_194">
<rect width="173" height="62" fill="white" transform="translate(0.0429688 0.0940895)"/>
</clipPath>
</defs>
</svg>
