<?xml version="1.0" encoding="UTF-8"?>
<svg xmlns="http://www.w3.org/2000/svg" version="1.1" viewBox="0 0 512 512">
  <defs>
    <style>
      .cls-1, .cls-2, .cls-3 {
        fill: #221afb;
      }

      .cls-2 {
        fill-rule: evenodd;
      }

      .cls-2, .cls-3 {
        stroke: #fff;
        stroke-width: 10px;
      }
    </style>
  </defs>
  <!-- Generator: Adobe Illustrator 28.6.0, SVG Export Plug-In . SVG Version: 1.2.0 Build 709)  -->
  <g>
    <g id="Layer_1">
      <path class="cls-2" d="M96.3,104.7c0-6.9,2.7-13.4,7.6-18.3,4.9-4.9,11.4-7.6,18.3-7.6h129.3c6.9,0,13.4-2.7,18.3-7.6,4.9-4.9,7.6-11.4,7.6-18.3s-2.7-13.4-7.6-18.3c-4.8-4.9-11.4-7.6-18.3-7.6H122.2c-20.6,0-40.3,8.2-54.9,22.7-14.6,14.6-22.7,34.3-22.7,54.9v327.6c0,20.6,8.2,40.3,22.7,54.9,14.6,14.6,34.3,22.7,54.9,22.7h293.1c23.8,0,43.1-19.3,43.1-43.1v-232.8c0-6.9-2.7-13.4-7.6-18.3-4.9-4.8-11.4-7.6-18.3-7.6s-13.4,2.7-18.3,7.6c-4.9,4.9-7.6,11.4-7.6,18.3v103.5H122.2c-9.1,0-17.8,1.6-25.9,4.4V104.7ZM96.3,415v17.2c0,14.3,11.6,25.9,25.9,25.9h284.5v-69H122.2c-6.9,0-13.4,2.7-18.3,7.6-4.9,4.9-7.6,11.4-7.6,18.3Z"/>
      <path class="cls-3" d="M351,125l-16.8-16.8c-4.9-4.9-11.4-7.6-18.3-7.6s-13.4,2.7-18.3,7.6c-4.9,4.9-7.6,11.4-7.6,18.3s2.7,13.4,7.6,18.3l61,61c4.9,4.9,11.4,7.6,18.3,7.6s13.4-2.7,18.3-7.6l61-61c4.9-4.8,7.6-11.4,7.6-18.3s-2.7-13.4-7.6-18.3c-4.8-4.9-11.4-7.6-18.3-7.6s-13.4,2.7-18.3,7.6l-16.8,16.8V29c-.2-6.7-3.1-13-7.9-17.7-4.8-4.7-11.3-7.3-18-7.3s-13.1,2.6-18,7.3c-4.8,4.7-7.6,11-7.9,17.7v96.1Z"/>
      <path class="cls-1" d="M128,316.7c-4.9-1.9-8.8-5.7-10.9-10.5-4.9-9.7-3.2-19.4,2-27.5,4.9-7.7,13.1-14.2,22.4-19.6,11.7-6.6,24.1-12,37-16.1,10-17.9,18.8-36.5,26.5-55.6-4.6-10.4-8.2-21.2-10.7-32.3-2.1-10-3-19.9-1.1-28.3,1.9-8.8,6.8-16.8,16.2-20.5,4.8-1.9,10-3,15-1.9,2.5.5,4.9,1.6,7,3.2,2.1,1.6,3.7,3.6,4.9,5.9,2.2,4.1,3,8.9,3.2,13.4.2,4.7-.3,9.9-1.2,15.3-2.1,12.7-6.7,28.3-13,44.8,6.9,14.7,15.1,28.8,24.4,42.1,11.1-.9,22.3-.5,33.3,1.2,9.1,1.6,18.3,4.9,23.9,11.6,3,3.6,4.8,8,5,12.9.2,4.8-1.2,9.5-3.4,14-2,4.2-5,7.8-8.8,10.4-3.8,2.5-8.2,3.7-12.7,3.4-8.3-.3-16.3-4.9-23.3-10.4-8.5-7-16.1-15-22.7-23.7-16.9,1.9-33.5,5.3-49.8,10.1-7.5,13.2-16,25.8-25.5,37.7-7.2,8.7-15.2,16.3-23.1,19.6-4.6,2.1-9.7,2.3-14.5.7ZM162.4,269.3c-4.1,1.9-8,3.9-11.5,5.9-8.2,4.8-13.5,9.6-16.1,13.6-2.3,3.6-2.4,6.2-1,9,.2.5.5.9.6,1.1.3,0,.6-.2.9-.3,3.4-1.4,8.9-5.9,15.8-14.3,4-4.9,7.7-9.9,11.2-15.1ZM203.3,236.1c8.3-1.9,16.7-3.6,25.2-4.8-4.5-6.9-8.8-14.1-12.7-21.4-3.9,8.8-8.1,17.6-12.5,26.2h0ZM264.3,247.4c3.7,4,7.4,7.5,10.9,10.2,6,4.7,10.2,6.3,12.4,6.4.6,0,1.2,0,1.7-.4,1-.8,1.8-1.9,2.3-3.1.9-1.5,1.4-3.2,1.5-5,0-.6-.2-1.1-.6-1.6-1.3-1.5-5-3.8-12.9-5.2-5-.8-10.2-1.3-15.3-1.3h0ZM214.7,159.9c2.1-6.8,3.8-13.7,5-20.7.8-4.7,1.1-8.6.9-11.6,0-1.7-.3-3.3-.8-4.9-1.2.2-2.5.5-3.6,1-2.2.9-3.9,2.6-4.9,7.1-1,4.8-.7,11.7,1.1,20.5.6,2.8,1.3,5.7,2.2,8.6h0Z"/>
    </g>
  </g>
</svg>