<?xml version="1.0" encoding="UTF-8"?>
<svg xmlns="http://www.w3.org/2000/svg" version="1.1" viewBox="0 0 743 116">
  <defs>
    <style>
      .cls-1 {
        fill: #fff;
      }
    </style>
  </defs>
  <!-- Generator: Adobe Illustrator 28.6.0, SVG Export Plug-In . SVG Version: 1.2.0 Build 709)  -->
  <g>
    <g id="Layer_1">
      <g>
        <path class="cls-1" d="M296.1,74.8c.3.6.7,1.1,1.2,1.4.5.4,1.1.6,1.8.8.7.2,1.4.2,2.2.2s.9,0,1.5-.2c.5-.1,1-.3,1.5-.6.5-.3.8-.6,1.1-1.1.3-.4.5-1,.5-1.6s-.1-.9-.3-1.3c-.2-.4-.5-.7-.8-.9-.3-.2-.7-.4-1.1-.6s-.8-.3-1.2-.4l-3.8-.9c-.5-.1-1-.3-1.5-.5-.5-.2-.9-.5-1.2-.8-.4-.3-.6-.7-.9-1.2-.2-.5-.3-1-.3-1.7s0-.9.2-1.5c.2-.6.5-1.1.9-1.6.4-.5,1.1-.9,1.8-1.3s1.8-.5,3-.5,1.7.1,2.4.3c.8.2,1.4.6,2,1,.6.5,1,1,1.4,1.7.3.7.5,1.4.5,2.3h-1.6c0-.7-.2-1.2-.4-1.7-.3-.5-.6-.9-1-1.2-.4-.3-.9-.6-1.5-.7-.6-.2-1.1-.3-1.8-.3s-1.1,0-1.6.2-1,.3-1.4.6c-.4.3-.7.6-1,1.1s-.4,1-.4,1.6,0,.8.2,1.1c.1.3.3.6.6.8.2.2.5.4.8.5.3.1.6.2,1,.3l4.2,1c.6.2,1.2.4,1.7.6.5.2,1,.5,1.4.9s.7.8,1,1.3c.2.5.4,1.1.4,1.8s0,.5,0,.8c0,.3-.1.7-.3,1-.2.4-.4.7-.7,1.1s-.7.7-1.2,1c-.5.3-1.1.5-1.8.7-.7.2-1.6.3-2.6.3s-2-.1-2.8-.4c-.9-.2-1.6-.6-2.2-1.1-.6-.5-1.1-1.1-1.4-1.9-.3-.8-.5-1.7-.4-2.7h1.6c0,.9.1,1.6.4,2.2h0ZM319.8,71.5l-3.3-8.8-3.5,8.8h6.8ZM317.5,61l6.8,17.3h-1.8l-2.1-5.4h-7.9l-2.1,5.4h-1.7l6.9-17.3h1.8ZM327.8,61v10.7c0,1,.1,1.8.3,2.5.2.7.6,1.3,1,1.7.4.4,1,.8,1.6,1,.6.2,1.3.3,2.1.3s1.5-.1,2.2-.3c.6-.2,1.2-.5,1.6-1,.4-.4.8-1,1-1.7.2-.7.3-1.6.3-2.5v-10.7h1.6v11c0,.9-.1,1.7-.4,2.5-.2.8-.6,1.5-1.2,2.1-.5.6-1.2,1.1-2.1,1.4-.8.3-1.9.5-3.1.5s-2.2-.2-3.1-.5c-.8-.3-1.5-.8-2.1-1.4-.5-.6-.9-1.3-1.2-2.1s-.4-1.6-.4-2.5v-11h1.6ZM349.7,68.5c.4-.1.8-.3,1.1-.6.3-.3.6-.6.8-1s.3-.9.3-1.4,0-.9-.3-1.3-.4-.7-.8-.9c-.3-.2-.7-.4-1.1-.6-.4-.1-.9-.2-1.4-.2s-.9,0-1.4.2c-.4.1-.8.3-1.2.6-.3.2-.6.5-.8.9-.2.4-.3.8-.3,1.3s.1,1,.3,1.4c.2.4.5.7.8,1,.3.3.7.4,1.2.6.4.1.9.2,1.3.1.5,0,.9,0,1.4-.2h0ZM352.7,67.8c-.5.7-1.2,1.1-2,1.4h0c1.1.3,2,.8,2.6,1.5s.9,1.7.9,2.9-.2,1.6-.5,2.2c-.3.6-.7,1.2-1.3,1.6-.5.4-1.1.7-1.8.9-.7.2-1.5.3-2.3.3s-1.5-.1-2.2-.3c-.7-.2-1.3-.5-1.9-.9-.5-.4-1-.9-1.3-1.6-.3-.6-.5-1.4-.5-2.2,0-1.1.3-2.1.9-2.9.6-.8,1.4-1.3,2.5-1.5h0c-.9-.3-1.6-.8-2-1.4-.5-.6-.7-1.4-.7-2.4s.1-1.4.4-1.9c.3-.5.7-1,1.2-1.3.5-.3,1-.6,1.6-.8.6-.2,1.2-.3,1.9-.3s1.2,0,1.9.3c.6.2,1.2.4,1.7.8.5.3.9.8,1.2,1.3.3.5.4,1.2.4,1.9s-.2,1.7-.7,2.4h0ZM350,77.2c.5-.2,1-.4,1.4-.7.4-.3.7-.7.9-1.2.2-.5.3-1,.3-1.7s-.1-1.1-.4-1.6c-.2-.5-.5-.8-.9-1.2-.4-.3-.9-.5-1.4-.7-.5-.2-1.1-.2-1.6-.2-.6,0-1.1,0-1.7.2-.5.1-1,.4-1.4.7-.4.3-.7.7-.9,1.2-.2.5-.4,1-.4,1.6s.1,1.2.3,1.7c.2.5.5.9.9,1.2.4.3.8.6,1.4.7.5.2,1.1.2,1.7.2s1.2,0,1.7-.2h0ZM358.1,74.7c.2.5.5,1,.8,1.4.4.4.8.7,1.4.9.5.2,1.1.3,1.8.3s1.1,0,1.6-.2c.5-.2,1-.4,1.4-.7.4-.3.7-.7,1-1.2.2-.5.4-1,.4-1.6s-.1-1.1-.3-1.6c-.2-.4-.5-.8-.9-1.1-.4-.3-.8-.5-1.3-.7-.5-.1-1-.2-1.6-.2h-1.3v-1.3h1.3c.4,0,.8,0,1.2-.2.4-.1.8-.3,1.1-.6.3-.2.6-.6.8-1,.2-.4.3-.8.3-1.4s0-1-.3-1.4c-.2-.4-.5-.7-.8-1-.3-.3-.7-.5-1.2-.6-.4-.1-.9-.2-1.4-.2s-1.2.1-1.7.3c-.5.2-.9.5-1.2.9-.3.4-.6.8-.7,1.4s-.2,1.1-.2,1.7h-1.5c0-.8.1-1.5.4-2.2.2-.7.6-1.3,1.1-1.8.5-.5,1-.9,1.7-1.2.7-.3,1.4-.4,2.2-.4s1.3,0,1.9.3c.6.2,1.2.4,1.7.8.5.3.9.8,1.2,1.3.3.5.4,1.2.4,1.9s-.2,1.7-.7,2.4c-.5.7-1.2,1.1-2.1,1.4h0c1.1.2,2,.7,2.6,1.4.6.7.9,1.7.9,2.8s-.2,1.6-.5,2.2c-.3.6-.7,1.2-1.3,1.6-.5.4-1.2.8-1.9,1-.7.2-1.4.3-2.2.3s-1.7-.1-2.4-.4c-.7-.3-1.4-.6-1.9-1.1-.5-.5-.9-1.1-1.2-1.8-.3-.7-.4-1.5-.3-2.4h1.5c0,.7,0,1.3.2,1.8h0ZM372.2,75.1c.2.5.5.9.9,1.2.4.3.8.6,1.3.8.5.2,1,.3,1.6.3s1.2-.1,1.8-.4c.5-.2,1-.6,1.3-1,.4-.4.7-.9.8-1.5.2-.6.3-1.1.3-1.8s-.1-1.2-.3-1.7c-.2-.5-.5-1-.9-1.4-.4-.4-.8-.7-1.4-.9-.5-.2-1.1-.3-1.7-.3s-1.5.2-2.2.5c-.7.3-1.2.8-1.6,1.5h-1.3l1.6-8.8h8.5v1.4h-7.4l-1.1,5.6h0c.4-.5,1-.8,1.6-1.1s1.3-.4,2-.4,1.7.1,2.4.4c.7.3,1.3.7,1.8,1.2.5.5.9,1.1,1.1,1.8.3.7.4,1.5.4,2.4s-.2,1.6-.5,2.3c-.3.7-.7,1.3-1.3,1.8-.5.5-1.2.9-1.9,1.2-.7.3-1.5.4-2.3.4s-1.5-.1-2.2-.4c-.7-.2-1.2-.6-1.7-1-.5-.4-.9-1-1.2-1.6-.3-.6-.4-1.4-.5-2.2h1.5c0,.6.1,1.1.4,1.6h0ZM386.1,75.1c.2.5.5.9.9,1.2s.8.6,1.3.8c.5.2,1,.3,1.6.3s1.2-.1,1.8-.4c.5-.2,1-.6,1.3-1,.4-.4.7-.9.8-1.5.2-.6.3-1.1.3-1.8s-.1-1.2-.3-1.7c-.2-.5-.5-1-.9-1.4-.4-.4-.8-.7-1.4-.9-.5-.2-1.1-.3-1.7-.3s-1.5.2-2.2.5c-.7.3-1.2.8-1.6,1.5h-1.3l1.6-8.8h8.5v1.4h-7.4l-1.1,5.6h0c.4-.5,1-.8,1.6-1.1.6-.3,1.3-.4,2-.4s1.7.1,2.4.4c.7.3,1.3.7,1.8,1.2.5.5.9,1.1,1.1,1.8.3.7.4,1.5.4,2.4s-.2,1.6-.5,2.3c-.3.7-.7,1.3-1.3,1.8-.5.5-1.2.9-1.9,1.2-.7.3-1.5.4-2.3.4s-1.5-.1-2.2-.4c-.7-.2-1.2-.6-1.7-1-.5-.4-.9-1-1.2-1.6-.3-.6-.4-1.4-.5-2.2h1.5c0,.6.1,1.1.4,1.6h0ZM408.2,71.5l-3.3-8.8-3.5,8.8h6.8ZM405.9,61l6.8,17.3h-1.8l-2.1-5.4h-7.9l-2.1,5.4h-1.7l6.9-17.3h1.8ZM422.5,69.2c.5,0,1,0,1.4-.2s.8-.4,1.2-.7c.3-.3.6-.6.8-1.1.2-.4.3-.9.3-1.4,0-1.1-.3-1.9-.9-2.5s-1.5-.9-2.8-.9h-6.1v6.8h6.1ZM422.6,61c.7,0,1.4,0,2,.3.6.2,1.2.4,1.7.8.5.4.9.8,1.1,1.4s.4,1.2.4,2c0,1.1-.3,2-.8,2.9-.6.8-1.4,1.3-2.5,1.5h0c.6.1,1,.3,1.4.5.4.2.7.5.9.8.2.3.4.7.5,1.2.1.4.2.9.2,1.4,0,.3,0,.6,0,1.1,0,.4,0,.8,0,1.3s.1.8.2,1.2c.1.4.2.7.4.9h-1.8c0-.2-.2-.4-.2-.6,0-.2,0-.5-.1-.7,0-.2,0-.5,0-.7,0-.2,0-.5,0-.6,0-.6,0-1.2-.2-1.8,0-.6-.2-1.1-.5-1.6-.2-.5-.6-.9-1-1.1-.4-.3-1.1-.4-1.8-.4h-6.2v7.7h-1.6v-17.3h7.9ZM438.6,68.6c.7,0,1.2,0,1.7-.2s.9-.4,1.2-.6c.3-.3.6-.6.7-.9s.2-.7.2-1.1c0-2.2-1.3-3.2-3.9-3.2h-5.7v6.2h5.7ZM438.6,61c.7,0,1.4,0,2.1.2.7.1,1.3.4,1.8.7s.9.8,1.2,1.3c.3.5.5,1.2.5,2s0,.9-.2,1.3c-.1.4-.4.8-.6,1.2-.3.3-.6.6-.9.9-.4.2-.8.4-1.2.5h0c1.1.2,2,.6,2.7,1.4s1,1.7,1,2.8,0,.6,0,.9c0,.3-.1.7-.3,1.1-.1.4-.4.7-.6,1.1-.3.4-.6.7-1.1.9-.5.3-1,.5-1.7.7-.7.2-1.5.3-2.4.3h-7.3v-17.3h7.3ZM438.6,76.9c.6,0,1.2,0,1.7-.2.5-.1,1-.3,1.4-.6.4-.3.7-.6,1-1.1.2-.5.4-1,.4-1.7,0-1.1-.4-1.9-1.2-2.5s-1.9-.8-3.4-.8h-5.7v6.9h5.7ZM449.7,61v17.3h-1.6v-17.3h1.6ZM465.7,64.5c-.3-.5-.7-1-1.2-1.3s-1-.6-1.6-.8c-.6-.2-1.2-.3-1.8-.3-1.1,0-2.1.2-2.9.7-.8.4-1.5,1-2,1.7-.5.7-.9,1.5-1.2,2.4-.2.9-.4,1.8-.4,2.8s.1,1.9.4,2.8c.2.9.6,1.7,1.2,2.4.5.7,1.2,1.3,2,1.7.8.4,1.8.7,2.9.7s1.5-.1,2.2-.4c.6-.3,1.2-.7,1.7-1.2.5-.5.8-1.1,1.1-1.8.3-.7.5-1.4.6-2.2h1.6c-.1,1.1-.4,2-.7,2.9-.4.9-.9,1.6-1.5,2.2-.6.6-1.3,1.1-2.2,1.4-.8.3-1.8.5-2.8.5s-2.5-.2-3.6-.7c-1-.5-1.9-1.1-2.5-2s-1.2-1.8-1.5-2.9c-.3-1.1-.5-2.2-.5-3.4s.2-2.3.5-3.4c.3-1.1.8-2,1.5-2.9s1.5-1.5,2.5-2c1-.5,2.2-.7,3.6-.7s1.6.1,2.4.4c.8.2,1.5.6,2.1,1.1.6.5,1.2,1.1,1.6,1.8.4.7.7,1.5.8,2.4h-1.6c-.1-.7-.4-1.3-.7-1.8h0ZM479.3,62c.8.5,1.4,1.2,1.8,2.1.4.8.7,1.8.9,2.8.2,1,.2,2,.2,3s0,2-.2,3c-.2,1-.4,2-.9,2.8-.4.8-1,1.5-1.8,2.1-.8.5-1.8.8-3,.8s-2.2-.3-3-.8c-.8-.5-1.4-1.2-1.8-2.1-.4-.8-.7-1.8-.9-2.8s-.2-2-.2-3,0-2,.2-3c.2-1,.4-2,.9-2.8.4-.8,1-1.5,1.8-2.1.8-.5,1.8-.8,3-.8s2.2.3,3,.8h0ZM473.9,63.3c-.6.5-1,1.1-1.3,1.9-.3.7-.5,1.5-.6,2.4,0,.9-.1,1.7-.1,2.4s0,1.5.1,2.4c0,.9.3,1.7.6,2.4.3.7.7,1.4,1.3,1.9.6.5,1.4.7,2.3.7s1.7-.2,2.3-.7c.6-.5,1-1.1,1.3-1.9.3-.7.5-1.6.6-2.4,0-.9.1-1.7.1-2.4s0-1.5-.1-2.4c0-.9-.3-1.7-.6-2.4-.3-.7-.7-1.4-1.3-1.9-.6-.5-1.4-.7-2.3-.7s-1.7.2-2.3.7h0ZM484.3,78.3c0-.8.2-1.6.4-2.2s.6-1.2,1.1-1.7c.5-.5,1-1,1.5-1.4.6-.4,1.1-.8,1.7-1.2.6-.4,1.2-.8,1.8-1.2s1.1-.8,1.6-1.3c.5-.5.8-.9,1.1-1.4.2-.5.4-1.1.4-1.8s-.1-1-.3-1.5-.5-.8-.8-1.1c-.3-.3-.7-.5-1.2-.7-.5-.2-.9-.2-1.5-.2s-1.3.1-1.8.4c-.5.3-.9.6-1.2,1-.3.4-.5.9-.7,1.5-.1.6-.2,1.2-.2,1.8h-1.5c0-.9,0-1.7.3-2.4.2-.7.6-1.4,1-1.9.5-.5,1-.9,1.7-1.2.7-.3,1.5-.4,2.4-.4s1.4.1,2.1.3c.6.2,1.2.5,1.7.9.5.4.8.9,1.1,1.5.3.6.4,1.3.4,2.1s-.1,1.4-.4,1.9c-.2.6-.5,1.1-.9,1.6s-.8.9-1.4,1.3-1,.8-1.6,1.1c-.4.3-.9.6-1.4.9-.5.3-1.1.7-1.6,1.1-.5.4-1,.8-1.3,1.3-.4.5-.6,1-.7,1.6h9.4v1.4h-11.1ZM505.9,63.6h0l-6.4,9.2h6.4v-9.2h0ZM505.9,61.4h1.4v11.4h2.5v1.3h-2.5v4.2h-1.4v-4.2h-7.8v-1.5l7.8-11.2h0ZM521,62c.8.5,1.4,1.2,1.8,2.1.4.8.7,1.8.9,2.8.2,1,.2,2,.2,3s0,2-.2,3-.4,2-.9,2.8c-.4.8-1,1.5-1.8,2.1s-1.8.8-3,.8-2.2-.3-3-.8-1.4-1.2-1.8-2.1c-.4-.8-.7-1.8-.9-2.8s-.2-2-.2-3,0-2,.2-3c.2-1,.4-2,.9-2.8s1-1.5,1.8-2.1,1.8-.8,3-.8,2.2.3,3,.8h0ZM515.7,63.3c-.6.5-1,1.1-1.3,1.9-.3.7-.5,1.5-.6,2.4s-.1,1.7-.1,2.4,0,1.5.1,2.4.3,1.7.6,2.4c.3.7.7,1.4,1.3,1.9s1.4.7,2.3.7,1.7-.2,2.3-.7c.6-.5,1-1.1,1.3-1.9.3-.7.5-1.6.6-2.4,0-.9.1-1.7.1-2.4s0-1.5-.1-2.4c0-.9-.3-1.7-.6-2.4-.3-.7-.7-1.4-1.3-1.9-.6-.5-1.4-.7-2.3-.7s-1.7.2-2.3.7h0ZM534.9,62c.8.5,1.4,1.2,1.8,2.1s.7,1.8.9,2.8c.2,1,.2,2,.2,3s0,2-.2,3c-.2,1-.4,2-.9,2.8-.4.8-1,1.5-1.8,2.1s-1.8.8-3,.8-2.2-.3-3-.8c-.8-.5-1.4-1.2-1.8-2.1-.4-.8-.7-1.8-.9-2.8-.2-1-.2-2-.2-3s0-2,.2-3c.2-1,.4-2,.9-2.8.4-.8,1-1.5,1.8-2.1.8-.5,1.8-.8,3-.8s2.2.3,3,.8h0ZM529.6,63.3c-.6.5-1,1.1-1.3,1.9-.3.7-.5,1.5-.6,2.4,0,.9-.1,1.7-.1,2.4s0,1.5.1,2.4c0,.9.3,1.7.6,2.4.3.7.7,1.4,1.3,1.9.6.5,1.4.7,2.3.7s1.7-.2,2.3-.7,1-1.1,1.3-1.9c.3-.7.5-1.6.6-2.4,0-.9.1-1.7.1-2.4s0-1.5-.1-2.4c0-.9-.3-1.7-.6-2.4-.3-.7-.7-1.4-1.3-1.9-.6-.5-1.4-.7-2.3-.7s-1.7.2-2.3.7h0ZM548.8,62c.8.5,1.4,1.2,1.8,2.1.4.8.7,1.8.9,2.8.2,1,.2,2,.2,3s0,2-.2,3c-.2,1-.4,2-.9,2.8-.4.8-1,1.5-1.8,2.1s-1.8.8-3,.8-2.2-.3-3-.8c-.8-.5-1.4-1.2-1.8-2.1-.4-.8-.7-1.8-.9-2.8s-.2-2-.2-3,0-2,.2-3c.2-1,.4-2,.9-2.8s1-1.5,1.8-2.1c.8-.5,1.8-.8,3-.8s2.2.3,3,.8h0ZM543.5,63.3c-.6.5-1,1.1-1.3,1.9-.3.7-.5,1.5-.6,2.4s-.1,1.7-.1,2.4,0,1.5.1,2.4.3,1.7.6,2.4c.3.7.7,1.4,1.3,1.9s1.4.7,2.3.7,1.7-.2,2.3-.7c.6-.5,1-1.1,1.3-1.9.3-.7.5-1.6.6-2.4,0-.9.1-1.7.1-2.4s0-1.5-.1-2.4c0-.9-.3-1.7-.6-2.4-.3-.7-.7-1.4-1.3-1.9-.6-.5-1.4-.7-2.3-.7s-1.7.2-2.3.7h0ZM562.8,62c.8.5,1.4,1.2,1.8,2.1s.7,1.8.9,2.8c.2,1,.2,2,.2,3s0,2-.2,3c-.2,1-.4,2-.9,2.8-.4.8-1,1.5-1.8,2.1s-1.8.8-3,.8-2.2-.3-3-.8c-.8-.5-1.4-1.2-1.8-2.1-.4-.8-.7-1.8-.9-2.8-.2-1-.2-2-.2-3s0-2,.2-3c.2-1,.4-2,.9-2.8.4-.8,1-1.5,1.8-2.1.8-.5,1.8-.8,3-.8s2.2.3,3,.8h0ZM557.4,63.3c-.6.5-1,1.1-1.3,1.9-.3.7-.5,1.5-.6,2.4,0,.9-.1,1.7-.1,2.4s0,1.5.1,2.4c0,.9.3,1.7.6,2.4.3.7.7,1.4,1.3,1.9.6.5,1.4.7,2.3.7s1.7-.2,2.3-.7c.6-.5,1-1.1,1.3-1.9.3-.7.5-1.6.6-2.4,0-.9.1-1.7.1-2.4s0-1.5-.1-2.4c0-.9-.3-1.7-.6-2.4-.3-.7-.7-1.4-1.3-1.9-.6-.5-1.4-.7-2.3-.7s-1.7.2-2.3.7h0ZM577.9,71.5l-3.3-8.8-3.5,8.8h6.8ZM575.6,61l6.8,17.3h-1.8l-2.1-5.4h-7.9l-2.1,5.4h-1.7l6.9-17.3h1.8ZM586.8,64.5c.5,0,1-.2,1.4-.4s.7-.5,1-1c.3-.4.5-1,.6-1.8h1.2v16.9h-1.5v-12.6h-4.5v-1.1c.7,0,1.3,0,1.8-.1h0ZM600.7,64.5c.5,0,1-.2,1.4-.4.4-.2.7-.5,1-1,.3-.4.5-1,.6-1.8h1.2v16.9h-1.5v-12.6h-4.5v-1.1c.7,0,1.3,0,1.8-.1h0ZM614.6,64.5c.5,0,1-.2,1.4-.4.4-.2.7-.5,1-1,.3-.4.5-1,.6-1.8h1.2v16.9h-1.5v-12.6h-4.5v-1.1c.7,0,1.3,0,1.8-.1h0Z"/>
        <path class="cls-1" d="M308.4,49.3l-.2-3.1h0c-.3.6-.6,1.1-1.1,1.6-.4.4-.9.8-1.4,1.1-.5.3-1.1.5-1.7.6-.6.1-1.2.2-1.8.2-1.4,0-2.5-.2-3.6-.7-1-.5-1.9-1.1-2.5-2-.7-.8-1.2-1.8-1.5-2.9-.3-1.1-.5-2.2-.5-3.4s.2-2.3.5-3.4c.3-1.1.8-2,1.5-2.9s1.5-1.5,2.5-2c1-.5,2.2-.7,3.6-.7s1.8.1,2.6.4c.8.2,1.5.6,2.2,1.1s1.2,1.1,1.6,1.8c.4.7.7,1.5.9,2.5h-1.6c0-.5-.2-1-.5-1.5-.3-.5-.7-1-1.1-1.4-.5-.4-1-.8-1.7-1-.7-.3-1.4-.4-2.2-.4s-2.1.2-2.9.7c-.8.4-1.5,1-2,1.7s-.9,1.5-1.2,2.4-.4,1.8-.4,2.8.1,1.9.4,2.8c.2.9.6,1.7,1.2,2.4.5.7,1.2,1.3,2,1.7.8.4,1.8.7,2.9.7s1.8-.2,2.5-.5,1.4-.8,1.9-1.3c.5-.6.9-1.2,1.2-2,.3-.8.4-1.6.4-2.5h-5.9v-1.4h7.3v8.8h-1.2ZM314.5,32v17.3h-1.5v-17.3h1.5ZM321.3,38.2c-.5.3-1,.7-1.4,1.2-.4.5-.6,1.1-.8,1.7s-.3,1.3-.3,1.9,0,1.3.3,1.9.5,1.2.8,1.7c.4.5.8.9,1.4,1.2.5.3,1.2.5,1.9.5s1.4-.2,1.9-.5c.5-.3,1-.7,1.4-1.2.4-.5.6-1.1.8-1.7s.3-1.3.3-1.9,0-1.3-.3-1.9-.5-1.2-.8-1.7c-.4-.5-.8-.9-1.4-1.2-.5-.3-1.2-.5-1.9-.5s-1.4.2-1.9.5h0ZM325.7,37c.7.4,1.3.8,1.8,1.4.5.6.9,1.3,1.1,2.1.3.8.4,1.6.4,2.5s-.1,1.8-.4,2.5c-.3.8-.6,1.5-1.1,2.1-.5.6-1.1,1.1-1.8,1.4-.7.3-1.6.5-2.5.5s-1.8-.2-2.5-.5-1.3-.8-1.8-1.4c-.5-.6-.9-1.3-1.1-2.1-.3-.8-.4-1.6-.4-2.5s.1-1.8.4-2.5c.3-.8.6-1.5,1.1-2.1.5-.6,1.1-1.1,1.8-1.4.7-.4,1.6-.5,2.5-.5s1.8.2,2.5.5h0ZM333.4,32v7.2h0c.2-.5.4-.8.7-1.2.3-.3.6-.6,1-.9.4-.2.8-.4,1.3-.5.5-.1.9-.2,1.4-.2,1,0,1.8.2,2.5.5.7.4,1.3.8,1.8,1.4.5.6.8,1.3,1,2.1.2.8.3,1.6.3,2.5s-.1,1.7-.3,2.5c-.2.8-.6,1.5-1,2.1-.5.6-1.1,1.1-1.8,1.4s-1.5.5-2.5.5-1.9-.2-2.7-.7c-.8-.5-1.4-1.1-1.7-2h0v2.4h-1.4v-17.3h1.5ZM341.6,41.1c-.2-.6-.4-1.2-.7-1.7-.3-.5-.8-.9-1.3-1.2-.5-.3-1.1-.5-1.9-.5s-1.5.2-2,.5c-.6.3-1,.7-1.4,1.2s-.6,1.1-.7,1.7c-.2.6-.2,1.3-.2,1.9s0,1.3.2,1.9c.2.6.4,1.2.7,1.7.3.5.8.9,1.4,1.2.6.3,1.2.5,2,.5s1.3-.2,1.9-.5c.5-.3.9-.7,1.3-1.2.3-.5.6-1.1.7-1.7.2-.6.2-1.3.2-1.9s0-1.3-.2-1.9h0ZM346.5,38.8c.3-.5.6-1,1.1-1.3.4-.3,1-.6,1.6-.7.6-.2,1.3-.2,2-.2s1.1,0,1.6.2c.5.1,1,.3,1.5.6s.8.7,1.1,1.2.4,1.2.4,2v6.6c0,.6.3.9.9.9s.3,0,.5,0v1.3c-.2,0-.3,0-.5,0-.1,0-.3,0-.5,0-.4,0-.7,0-.9-.2-.2-.1-.4-.3-.5-.4-.1-.2-.2-.4-.3-.7,0-.3,0-.6,0-.9h0c-.3.4-.6.8-.8,1.1-.3.3-.6.6-.9.8s-.7.4-1.2.5c-.4.1-1,.2-1.6.2s-1.1,0-1.6-.2c-.5-.1-1-.4-1.3-.7-.4-.3-.7-.7-.9-1.1-.2-.5-.3-1-.3-1.6s.2-1.6.6-2c.4-.5.9-.9,1.5-1.1.6-.3,1.4-.4,2.2-.5.8-.1,1.6-.2,2.4-.3.3,0,.6,0,.8-.1.2,0,.4-.1.6-.3s.3-.3.4-.5.1-.5.1-.8c0-.5,0-.9-.3-1.3s-.4-.6-.7-.8c-.3-.2-.6-.3-1-.4-.4,0-.8-.1-1.3-.1-1,0-1.8.2-2.4.7s-.9,1.2-1,2.2h-1.5c0-.7.2-1.4.5-1.9h0ZM354.1,42.5c0,.2-.3.3-.6.4-.3,0-.5.1-.7.2-.6.1-1.3.2-2,.3-.7,0-1.3.2-1.9.4-.6.2-1,.4-1.4.8-.4.3-.5.8-.5,1.4s0,.7.2,1c.2.3.4.6.6.8.3.2.6.4.9.5.3.1.7.2,1,.2.6,0,1.1,0,1.7-.3.5-.2,1-.4,1.4-.8.4-.3.7-.7.9-1.2.2-.5.4-1,.4-1.6v-2h0ZM360.8,32v17.3h-1.5v-17.3h1.5ZM372.9,45.8c.3.6.7,1.1,1.2,1.4.5.4,1.1.6,1.8.8.7.2,1.4.2,2.2.2s.9,0,1.5-.2c.5-.1,1-.3,1.5-.6.5-.3.8-.6,1.1-1.1.3-.4.5-1,.5-1.6s-.1-.9-.3-1.3c-.2-.4-.5-.7-.8-.9-.3-.2-.7-.4-1.1-.6-.4-.2-.8-.3-1.2-.4l-3.8-.9c-.5-.1-1-.3-1.5-.5-.5-.2-.9-.5-1.2-.8-.4-.3-.6-.7-.9-1.2-.2-.5-.3-1-.3-1.7s0-.9.2-1.5c.2-.6.5-1.1.9-1.6.4-.5,1.1-.9,1.8-1.3.8-.3,1.8-.5,3-.5s1.7.1,2.4.3c.8.2,1.4.6,2,1,.6.5,1,1,1.4,1.7.3.7.5,1.4.5,2.3h-1.6c0-.7-.2-1.2-.4-1.7-.3-.5-.6-.9-1-1.2-.4-.3-.9-.6-1.5-.7-.6-.2-1.1-.3-1.8-.3s-1.1,0-1.6.2c-.5.1-1,.3-1.4.6-.4.3-.7.6-1,1.1-.2.4-.4,1-.4,1.6s0,.8.2,1.1c.1.3.3.6.6.8.2.2.5.4.8.5.3.1.6.2,1,.3l4.2,1c.6.2,1.2.4,1.7.6.5.2,1,.5,1.4.9.4.3.7.8,1,1.3.2.5.4,1.1.4,1.8s0,.5,0,.8c0,.3-.1.7-.3,1-.2.4-.4.7-.7,1.1-.3.4-.7.7-1.2,1-.5.3-1.1.5-1.8.7-.7.2-1.6.3-2.6.3s-2-.1-2.8-.4c-.9-.2-1.6-.6-2.2-1.1-.6-.5-1.1-1.1-1.4-1.9-.3-.8-.5-1.7-.4-2.7h1.6c0,.9.1,1.6.4,2.2h0ZM392.1,36.8v1.3h-2.5v8.4c0,.5,0,.9.2,1.2.1.3.5.4,1,.5.4,0,.9,0,1.3,0v1.3c-.2,0-.5,0-.7,0-.2,0-.5,0-.7,0-1,0-1.7-.2-2.1-.6-.4-.4-.6-1.1-.6-2.2v-8.5h-2.2v-1.3h2.2v-3.7h1.5v3.7h2.5ZM395.1,38.8c.3-.5.6-1,1.1-1.3s1-.6,1.6-.7c.6-.2,1.3-.2,2-.2s1.1,0,1.6.2c.5.1,1,.3,1.5.6.4.3.8.7,1.1,1.2.3.5.4,1.2.4,2v6.6c0,.6.3.9.9.9s.3,0,.5,0v1.3c-.2,0-.3,0-.5,0-.1,0-.3,0-.5,0-.4,0-.7,0-.9-.2-.2-.1-.4-.3-.5-.4-.1-.2-.2-.4-.3-.7,0-.3,0-.6,0-.9h0c-.3.4-.6.8-.8,1.1-.3.3-.6.6-.9.8-.3.2-.7.4-1.2.5-.4.1-1,.2-1.6.2s-1.1,0-1.6-.2-1-.4-1.3-.7c-.4-.3-.7-.7-.9-1.1-.2-.5-.3-1-.3-1.6s.2-1.6.6-2,.9-.9,1.5-1.1c.6-.3,1.4-.4,2.2-.5.8-.1,1.6-.2,2.4-.3.3,0,.6,0,.8-.1.2,0,.4-.1.6-.3s.3-.3.4-.5c0-.2.1-.5.1-.8,0-.5,0-.9-.3-1.3-.2-.3-.4-.6-.7-.8-.3-.2-.6-.3-1-.4-.4,0-.8-.1-1.3-.1-1,0-1.8.2-2.4.7s-.9,1.2-1,2.2h-1.5c0-.7.2-1.4.5-1.9h0ZM402.7,42.5c0,.2-.3.3-.6.4-.3,0-.5.1-.7.2-.6.1-1.3.2-2,.3-.7,0-1.3.2-1.9.4-.6.2-1,.4-1.4.8-.4.3-.5.8-.5,1.4s0,.7.2,1c.2.3.4.6.6.8.3.2.6.4.9.5.3.1.7.2,1,.2.6,0,1.1,0,1.7-.3.5-.2,1-.4,1.4-.8.4-.3.7-.7.9-1.2.2-.5.4-1,.4-1.6v-2h0ZM409.3,36.8v2.2h0c.3-.8.8-1.4,1.5-1.8.7-.5,1.6-.7,2.4-.7s1.6.1,2.2.3c.6.2,1.1.5,1.4,1,.4.4.6.9.7,1.5.1.6.2,1.3.2,2v8h-1.5v-7.8c0-.5,0-1-.1-1.5,0-.5-.3-.9-.5-1.2s-.6-.6-1-.8c-.4-.2-.9-.3-1.5-.3s-1.2.1-1.6.3c-.5.2-.9.5-1.2.9-.3.4-.6.8-.8,1.4-.2.5-.3,1.1-.3,1.7v7.3h-1.5v-12.5h1.5ZM430.8,49.3v-2.4h0c-.2.4-.4.8-.7,1.1-.3.3-.7.6-1.1.9-.4.2-.8.4-1.3.5-.5.1-.9.2-1.4.2-1,0-1.8-.2-2.5-.5-.7-.3-1.3-.8-1.8-1.4-.5-.6-.8-1.3-1-2.1-.2-.8-.3-1.6-.3-2.5s.1-1.7.3-2.5c.2-.8.6-1.5,1-2.1s1.1-1.1,1.8-1.4c.7-.4,1.5-.5,2.5-.5s.9,0,1.4.2c.4.1.9.3,1.2.5.4.2.7.5,1,.9.3.3.5.7.7,1.2h0v-7.2h1.5v17.3h-1.4ZM422.4,45c.2.6.4,1.2.7,1.7.3.5.8.9,1.3,1.2.5.3,1.1.5,1.9.5s1.5-.2,2-.5,1-.7,1.4-1.2c.3-.5.6-1.1.7-1.7.2-.6.2-1.3.2-1.9s0-1.3-.2-1.9c-.2-.6-.4-1.2-.7-1.7-.3-.5-.8-.9-1.4-1.2s-1.2-.5-2-.5-1.3.2-1.9.5c-.5.3-.9.7-1.3,1.2-.3.5-.6,1.1-.7,1.7-.2.6-.2,1.3-.2,1.9s0,1.3.2,1.9h0ZM435.9,38.8c.3-.5.6-1,1.1-1.3.4-.3,1-.6,1.6-.7.6-.2,1.3-.2,2-.2s1.1,0,1.6.2c.5.1,1,.3,1.5.6.4.3.8.7,1.1,1.2.3.5.4,1.2.4,2v6.6c0,.6.3.9.9.9s.3,0,.5,0v1.3c-.2,0-.3,0-.5,0-.1,0-.3,0-.5,0-.4,0-.7,0-.9-.2-.2-.1-.4-.3-.5-.4-.1-.2-.2-.4-.3-.7,0-.3,0-.6,0-.9h0c-.3.4-.6.8-.8,1.1s-.6.6-.9.8-.7.4-1.2.5c-.4.1-1,.2-1.6.2s-1.1,0-1.6-.2c-.5-.1-1-.4-1.3-.7-.4-.3-.7-.7-.9-1.1-.2-.5-.3-1-.3-1.6s.2-1.6.6-2,.9-.9,1.5-1.1c.6-.3,1.4-.4,2.2-.5.8-.1,1.6-.2,2.4-.3.3,0,.6,0,.8-.1.2,0,.4-.1.6-.3.2-.1.3-.3.4-.5,0-.2.1-.5.1-.8,0-.5,0-.9-.3-1.3-.2-.3-.4-.6-.7-.8s-.6-.3-1-.4c-.4,0-.8-.1-1.3-.1-1,0-1.8.2-2.4.7-.6.5-.9,1.2-1,2.2h-1.5c0-.7.2-1.4.5-1.9h0ZM443.5,42.5c0,.2-.3.3-.6.4s-.5.1-.7.2c-.6.1-1.3.2-2,.3-.7,0-1.3.2-1.9.4-.6.2-1,.4-1.4.8-.4.3-.5.8-.5,1.4s0,.7.2,1c.2.3.4.6.6.8.3.2.6.4.9.5.3.1.7.2,1,.2.6,0,1.1,0,1.7-.3.5-.2,1-.4,1.4-.8s.7-.7.9-1.2c.2-.5.4-1,.4-1.6v-2h0ZM450,36.8v2.9h0c.4-1,1-1.8,1.8-2.3.8-.5,1.8-.8,2.9-.7v1.5c-.7,0-1.3,0-1.9.3-.6.2-1.1.5-1.5.9-.4.4-.7.9-1,1.4-.2.6-.3,1.2-.3,1.8v6.6h-1.5v-12.5h1.4ZM465.8,49.3v-2.4h0c-.2.4-.4.8-.7,1.1-.3.3-.7.6-1.1.9-.4.2-.8.4-1.3.5-.5.1-.9.2-1.4.2-1,0-1.8-.2-2.5-.5-.7-.3-1.3-.8-1.8-1.4-.5-.6-.8-1.3-1-2.1-.2-.8-.3-1.6-.3-2.5s.1-1.7.3-2.5c.2-.8.6-1.5,1-2.1.5-.6,1.1-1.1,1.8-1.4.7-.4,1.5-.5,2.5-.5s.9,0,1.4.2c.4.1.9.3,1.2.5.4.2.7.5,1,.9.3.3.5.7.7,1.2h0v-7.2h1.5v17.3h-1.4ZM457.5,45c.2.6.4,1.2.7,1.7.3.5.8.9,1.3,1.2s1.1.5,1.9.5,1.5-.2,2-.5,1-.7,1.4-1.2c.3-.5.6-1.1.7-1.7.2-.6.2-1.3.2-1.9s0-1.3-.2-1.9c-.2-.6-.4-1.2-.7-1.7s-.8-.9-1.4-1.2-1.2-.5-2-.5-1.3.2-1.9.5-.9.7-1.3,1.2-.6,1.1-.7,1.7c-.2.6-.2,1.3-.2,1.9s0,1.3.2,1.9h0ZM487.3,42.5l-3.3-8.8-3.5,8.8h6.8ZM485,32l6.8,17.3h-1.8l-2.1-5.4h-7.9l-2.1,5.4h-1.7l6.9-17.3h1.8ZM495,36.8v2.2h0c.3-.8.8-1.4,1.5-1.8.7-.5,1.6-.7,2.4-.7s1.6.1,2.2.3c.6.2,1.1.5,1.4,1,.4.4.6.9.7,1.5.1.6.2,1.3.2,2v8h-1.5v-7.8c0-.5,0-1-.1-1.5,0-.5-.3-.9-.5-1.2s-.6-.6-1-.8-.9-.3-1.5-.3-1.2.1-1.6.3c-.5.2-.9.5-1.2.9-.3.4-.6.8-.8,1.4-.2.5-.3,1.1-.3,1.7v7.3h-1.5v-12.5h1.5ZM508.5,36.8v2.2h0c.3-.8.8-1.4,1.5-1.8.7-.5,1.6-.7,2.4-.7s1.6.1,2.2.3c.6.2,1.1.5,1.4,1,.4.4.6.9.7,1.5.1.6.2,1.3.2,2v8h-1.5v-7.8c0-.5,0-1-.1-1.5,0-.5-.3-.9-.5-1.2s-.6-.6-1-.8c-.4-.2-.9-.3-1.5-.3s-1.2.1-1.6.3c-.5.2-.9.5-1.2.9-.3.4-.6.8-.8,1.4-.2.5-.3,1.1-.3,1.7v7.3h-1.5v-12.5h1.5ZM529.1,49.3v-2.2h0c-.4.8-1,1.5-1.8,1.9-.8.4-1.6.7-2.5.7s-1.5-.1-2-.3c-.6-.2-1-.5-1.4-.9-.3-.4-.6-.9-.8-1.5-.2-.6-.2-1.2-.2-2v-8.1h1.5v8.1c0,1.1.3,2,.8,2.6.5.6,1.3.9,2.5.9s1.2-.1,1.7-.4c.5-.3.9-.7,1.2-1.1.3-.5.5-1,.7-1.6.1-.6.2-1.2.2-1.8v-6.5h1.5v12.5h-1.4ZM534.2,38.8c.3-.5.6-1,1.1-1.3.4-.3,1-.6,1.6-.7.6-.2,1.3-.2,2-.2s1.1,0,1.6.2c.5.1,1,.3,1.5.6s.8.7,1.1,1.2c.3.5.4,1.2.4,2v6.6c0,.6.3.9.9.9s.3,0,.5,0v1.3c-.2,0-.3,0-.5,0-.1,0-.3,0-.5,0-.4,0-.7,0-.9-.2-.2-.1-.4-.3-.5-.4-.1-.2-.2-.4-.3-.7,0-.3,0-.6,0-.9h0c-.3.4-.6.8-.8,1.1-.3.3-.6.6-.9.8-.3.2-.7.4-1.2.5-.4.1-1,.2-1.6.2s-1.1,0-1.6-.2-1-.4-1.3-.7c-.4-.3-.7-.7-.9-1.1-.2-.5-.3-1-.3-1.6s.2-1.6.6-2c.4-.5.9-.9,1.5-1.1.6-.3,1.4-.4,2.2-.5s1.6-.2,2.4-.3c.3,0,.6,0,.8-.1.2,0,.4-.1.6-.3s.3-.3.4-.5.1-.5.1-.8c0-.5,0-.9-.3-1.3s-.4-.6-.7-.8c-.3-.2-.6-.3-1-.4-.4,0-.8-.1-1.3-.1-1,0-1.8.2-2.4.7-.6.5-.9,1.2-1,2.2h-1.5c0-.7.2-1.4.5-1.9h0ZM541.8,42.5c0,.2-.3.3-.6.4-.3,0-.5.1-.7.2-.6.1-1.3.2-2,.3-.7,0-1.3.2-1.9.4-.6.2-1,.4-1.4.8-.4.3-.5.8-.5,1.4s0,.7.2,1c.2.3.4.6.6.8.3.2.6.4.9.5.3.1.7.2,1,.2.6,0,1.1,0,1.7-.3.5-.2,1-.4,1.4-.8s.7-.7.9-1.2c.2-.5.4-1,.4-1.6v-2h0ZM548.5,32v17.3h-1.5v-17.3h1.5ZM567.1,40.2c.5,0,1,0,1.4-.2.5-.2.8-.4,1.2-.7.3-.3.6-.6.8-1.1.2-.4.3-.9.3-1.4,0-1.1-.3-1.9-.9-2.5s-1.5-.9-2.8-.9h-6.1v6.8h6.1ZM567.3,32c.7,0,1.4,0,2,.3.6.2,1.2.4,1.7.8.5.4.9.8,1.1,1.4.3.6.4,1.2.4,2,0,1.1-.3,2-.8,2.9s-1.4,1.3-2.5,1.5h0c.6.1,1,.3,1.4.5.4.2.7.5.9.8.2.3.4.7.5,1.2.1.4.2.9.2,1.4,0,.3,0,.6,0,1.1s0,.8,0,1.3c0,.4.1.8.2,1.2s.2.7.4.9h-1.8c0-.2-.2-.4-.2-.6,0-.2,0-.5-.1-.7,0-.2,0-.5,0-.7s0-.5,0-.6c0-.6,0-1.2-.2-1.8,0-.6-.2-1.1-.5-1.6-.2-.5-.6-.9-1-1.1-.4-.3-1.1-.4-1.8-.4h-6.2v7.7h-1.6v-17.3h7.9ZM584.3,40.5c-.2-.5-.4-1-.8-1.4-.3-.4-.7-.7-1.2-1s-1-.4-1.6-.4-1.2.1-1.7.4c-.5.2-.9.6-1.2,1-.3.4-.6.9-.8,1.4-.2.5-.3,1.1-.4,1.7h8.1c0-.6-.1-1.1-.3-1.7h0ZM576.8,45.2c.2.6.4,1.1.7,1.6.3.5.8.9,1.3,1.2.5.3,1.1.5,1.9.5,1.1,0,2-.3,2.6-.9.6-.6,1.1-1.4,1.3-2.3h1.5c-.3,1.4-.9,2.5-1.8,3.3-.9.8-2.1,1.2-3.7,1.2s-1.8-.2-2.5-.5c-.7-.3-1.3-.8-1.8-1.4-.5-.6-.8-1.3-1-2.1-.2-.8-.3-1.6-.3-2.5s.1-1.6.3-2.4c.2-.8.6-1.5,1-2.1s1-1.1,1.8-1.5c.7-.4,1.6-.6,2.5-.6s1.9.2,2.6.6c.7.4,1.3.9,1.7,1.6.4.7.8,1.4,1,2.2s.3,1.7.2,2.6h-9.6c0,.5,0,1.1.2,1.7h0ZM590.1,36.8v2.4h0c.4-.9.9-1.5,1.7-2,.8-.5,1.7-.7,2.7-.7s1.8.2,2.5.5c.7.4,1.3.8,1.8,1.4s.8,1.3,1,2.1c.2.8.3,1.6.3,2.5s-.1,1.7-.3,2.5c-.2.8-.6,1.5-1,2.1-.5.6-1.1,1.1-1.8,1.4-.7.3-1.5.5-2.5.5s-.9,0-1.4-.2c-.5-.1-.9-.3-1.3-.5-.4-.2-.7-.5-1-.8-.3-.3-.5-.7-.7-1.2h0v7h-1.5v-17.1h1.4ZM598.5,41.1c-.2-.6-.4-1.2-.7-1.7s-.8-.9-1.3-1.2-1.1-.5-1.9-.5-1.5.1-2.1.4c-.6.3-1,.7-1.4,1.2-.3.5-.6,1-.7,1.7-.1.6-.2,1.3-.2,2s0,1.3.2,1.9c.2.6.4,1.2.7,1.7.3.5.8.9,1.4,1.2s1.2.5,2,.5,1.3-.2,1.9-.5.9-.7,1.3-1.2c.3-.5.6-1.1.7-1.7.2-.6.2-1.3.2-1.9s0-1.3-.2-1.9h0ZM606.4,38.2c-.5.3-1,.7-1.4,1.2-.4.5-.6,1.1-.8,1.7-.2.6-.3,1.3-.3,1.9s0,1.3.3,1.9c.2.6.5,1.2.8,1.7.4.5.8.9,1.4,1.2.5.3,1.2.5,1.9.5s1.4-.2,1.9-.5c.5-.3,1-.7,1.4-1.2s.6-1.1.8-1.7c.2-.6.3-1.3.3-1.9s0-1.3-.3-1.9c-.2-.6-.5-1.2-.8-1.7-.4-.5-.8-.9-1.4-1.2-.5-.3-1.2-.5-1.9-.5s-1.4.2-1.9.5h0ZM610.8,37c.7.4,1.3.8,1.8,1.4.5.6.9,1.3,1.1,2.1s.4,1.6.4,2.5-.1,1.8-.4,2.5-.6,1.5-1.1,2.1c-.5.6-1.1,1.1-1.8,1.4-.7.3-1.6.5-2.5.5s-1.8-.2-2.5-.5-1.3-.8-1.8-1.4c-.5-.6-.9-1.3-1.1-2.1s-.4-1.6-.4-2.5.1-1.8.4-2.5.6-1.5,1.1-2.1c.5-.6,1.1-1.1,1.8-1.4.7-.4,1.6-.5,2.5-.5s1.8.2,2.5.5h0ZM618.4,36.8v2.9h0c.4-1,1-1.8,1.8-2.3s1.8-.8,2.9-.7v1.5c-.7,0-1.3,0-1.9.3-.6.2-1.1.5-1.5.9-.4.4-.7.9-1,1.4-.2.6-.3,1.2-.3,1.8v6.6h-1.5v-12.5h1.4ZM630,36.8v1.3h-2.5v8.4c0,.5,0,.9.2,1.2.1.3.5.4,1,.5.4,0,.9,0,1.3,0v1.3c-.2,0-.5,0-.7,0-.2,0-.5,0-.7,0-1,0-1.7-.2-2.1-.6-.4-.4-.6-1.1-.6-2.2v-8.5h-2.2v-1.3h2.2v-3.7h1.5v3.7h2.5ZM642,32l10.1,14.6h0v-14.6h1.6v17.3h-1.8l-10.1-14.6h0v14.6h-1.6v-17.3h1.8ZM666.1,49.3v-2.2h0c-.4.8-1,1.5-1.8,1.9-.8.4-1.6.7-2.5.7s-1.5-.1-2-.3c-.6-.2-1-.5-1.4-.9-.3-.4-.6-.9-.8-1.5-.2-.6-.2-1.2-.2-2v-8.1h1.5v8.1c0,1.1.3,2,.8,2.6.5.6,1.3.9,2.5.9s1.2-.1,1.7-.4c.5-.3.9-.7,1.2-1.1.3-.5.5-1,.7-1.6.1-.6.2-1.2.2-1.8v-6.5h1.5v12.5h-1.4ZM672.3,36.8v2.1h0c.4-.8.9-1.4,1.6-1.8.7-.4,1.5-.7,2.5-.7s1.6.2,2.2.6c.7.4,1.1,1,1.3,1.8.4-.8.9-1.4,1.6-1.8.7-.4,1.5-.6,2.3-.6,2.8,0,4.1,1.5,4.1,4.4v8.5h-1.5v-8.4c0-1-.2-1.8-.7-2.4s-1.2-.8-2.3-.8-1.2.1-1.6.4c-.4.2-.8.6-1,1-.3.4-.4.9-.5,1.4-.1.5-.2,1.1-.2,1.7v7.1h-1.5v-8.5c0-.4,0-.8-.1-1.2,0-.4-.2-.7-.4-1-.2-.3-.5-.5-.8-.7-.3-.2-.7-.2-1.2-.2s-1.2.1-1.7.4-.9.6-1.2,1c-.3.4-.5.9-.7,1.4-.1.6-.2,1.2-.2,1.8v7h-1.5v-12.5h1.4ZM693,32v7.2h0c.2-.5.4-.8.7-1.2.3-.3.6-.6,1-.9s.8-.4,1.3-.5c.5-.1.9-.2,1.4-.2,1,0,1.8.2,2.5.5.7.4,1.3.8,1.8,1.4.5.6.8,1.3,1,2.1.2.8.3,1.6.3,2.5s-.1,1.7-.3,2.5c-.2.8-.6,1.5-1,2.1-.5.6-1.1,1.1-1.8,1.4-.7.3-1.5.5-2.5.5s-1.9-.2-2.7-.7-1.4-1.1-1.7-2h0v2.4h-1.4v-17.3h1.5ZM701.2,41.1c-.2-.6-.4-1.2-.7-1.7-.3-.5-.8-.9-1.3-1.2-.5-.3-1.1-.5-1.9-.5s-1.5.2-2,.5c-.6.3-1,.7-1.4,1.2-.3.5-.6,1.1-.7,1.7-.2.6-.2,1.3-.2,1.9s0,1.3.2,1.9c.2.6.4,1.2.7,1.7.3.5.8.9,1.4,1.2.6.3,1.2.5,2,.5s1.3-.2,1.9-.5c.5-.3.9-.7,1.3-1.2.3-.5.6-1.1.7-1.7.2-.6.2-1.3.2-1.9s0-1.3-.2-1.9h0ZM714.5,40.5c-.2-.5-.4-1-.8-1.4-.3-.4-.7-.7-1.2-1-.5-.2-1-.4-1.6-.4s-1.2.1-1.7.4-.9.6-1.2,1-.6.9-.8,1.4c-.2.5-.3,1.1-.4,1.7h8.1c0-.6-.1-1.1-.3-1.7h0ZM706.9,45.2c.2.6.4,1.1.7,1.6.3.5.8.9,1.3,1.2.5.3,1.1.5,1.9.5,1.1,0,2-.3,2.6-.9.6-.6,1.1-1.4,1.3-2.3h1.5c-.3,1.4-.9,2.5-1.8,3.3-.9.8-2.1,1.2-3.7,1.2s-1.8-.2-2.5-.5-1.3-.8-1.8-1.4c-.5-.6-.8-1.3-1-2.1-.2-.8-.3-1.6-.3-2.5s.1-1.6.3-2.4c.2-.8.6-1.5,1-2.1s1-1.1,1.8-1.5c.7-.4,1.6-.6,2.5-.6s1.9.2,2.6.6c.7.4,1.3.9,1.7,1.6.4.7.8,1.4,1,2.2.2.8.3,1.7.2,2.6h-9.6c0,.5,0,1.1.2,1.7h0ZM720.2,36.8v2.9h0c.4-1,1-1.8,1.8-2.3s1.8-.8,2.9-.7v1.5c-.7,0-1.3,0-1.9.3-.6.2-1.1.5-1.5.9-.4.4-.7.9-1,1.4s-.3,1.2-.3,1.8v6.6h-1.5v-12.5h1.4ZM734.5,34.1c-.3-.3-.7-.4-1.3-.4-.4,0-.7,0-1,.2-.3.1-.5.3-.7.6-.2.2-.3.5-.4.8,0,.3-.1.7-.1,1s0,.7.1,1c.1.3.2.6.4.8.2.2.4.4.7.6.3.1.6.2,1,.2s.9-.1,1.3-.4c.3-.3.5-.6.6-1.1h.7c0,.3-.1.6-.3.9-.1.3-.3.5-.6.7-.2.2-.5.3-.8.4-.3,0-.6.1-.9.1-.5,0-.9,0-1.3-.2-.4-.2-.7-.4-1-.7-.3-.3-.5-.6-.6-1-.1-.4-.2-.8-.2-1.3s0-.9.2-1.3c.1-.4.3-.7.6-1,.3-.3.6-.5,1-.7.4-.2.8-.2,1.3-.2s.6,0,.9.1c.3,0,.6.2.8.4.2.2.4.4.6.7.1.3.2.6.3.9h-.7c0-.4-.3-.8-.6-1.1h0ZM737.1,34.5c-.2-.5-.5-1-.9-1.4-.4-.4-.9-.7-1.4-1-.5-.2-1.1-.4-1.8-.4s-1.2.1-1.8.4c-.5.2-1,.6-1.4,1-.4.4-.7.9-.9,1.4-.2.5-.3,1.1-.3,1.8s.1,1.2.3,1.8c.2.5.5,1,.9,1.4.4.4.9.7,1.4,1,.5.2,1.1.4,1.8.4s1.2-.1,1.8-.4c.5-.2,1-.6,1.4-1,.4-.4.7-.9.9-1.4.2-.5.3-1.1.3-1.8s-.1-1.2-.3-1.8h0ZM737.9,38.3c-.3.6-.6,1.2-1.1,1.7-.5.5-1,.8-1.7,1.1-.6.3-1.3.4-2.1.4s-1.4-.1-2.1-.4c-.6-.3-1.2-.6-1.7-1.1-.5-.5-.8-1-1.1-1.7-.3-.6-.4-1.3-.4-2.1s.1-1.4.4-2.1c.3-.6.6-1.2,1.1-1.7.5-.5,1-.8,1.7-1.1.6-.3,1.3-.4,2.1-.4s1.4.1,2.1.4c.6.3,1.2.6,1.7,1.1.5.5.8,1,1.1,1.7.3.6.4,1.3.4,2.1s-.1,1.4-.4,2.1h0Z"/>
        <path class="cls-1" d="M40.9,94.3l3.1,10.4h0l3-10.4h1.7l3,10.4h0l3.1-10.4h1.6l-3.9,12.1h-1.6l-3-10.2h0l-3,10.2h-1.6l-3.9-12.1h1.6ZM60.2,94.3l3.1,10.4h0l3-10.4h1.7l3,10.4h0l3.1-10.4h1.6l-3.9,12.1h-1.6l-3-10.2h0l-3,10.2h-1.6l-3.9-12.1h1.6ZM79.6,94.3l3.1,10.4h0l3-10.4h1.7l3,10.4h0l3.1-10.4h1.6l-3.9,12.1h-1.6l-3-10.2h0l-3,10.2h-1.6l-3.9-12.1h1.6ZM98.1,103.9h2v2.5h-2v-2.5h0ZM115.6,107.8c-.2.7-.5,1.3-.9,1.8-.4.5-1,.9-1.7,1.2-.7.3-1.5.4-2.5.4s-1.2,0-1.8-.2c-.6-.1-1.1-.4-1.6-.7-.5-.3-.8-.7-1.2-1.1-.3-.5-.5-1-.5-1.7h1.5c0,.5.2.8.5,1.1.2.3.5.6.8.7.3.2.7.3,1.1.4.4,0,.8.1,1.2.1,1.4,0,2.4-.4,3-1.2.6-.8.9-1.9.9-3.4v-1.6h0c-.3.8-.8,1.4-1.5,1.8-.7.5-1.4.7-2.3.7s-1.8-.2-2.5-.5c-.7-.3-1.3-.8-1.7-1.3-.4-.6-.8-1.2-1-2-.2-.8-.3-1.6-.3-2.4s.1-1.6.4-2.4c.2-.7.6-1.4,1.1-2,.5-.6,1-1,1.7-1.3.7-.3,1.5-.5,2.3-.5s.9,0,1.3.2c.4.1.8.3,1.1.5.3.2.6.5.9.8.3.3.5.6.6.9h0v-2.1h1.5v11.2c0,.9,0,1.7-.3,2.4h0ZM112.2,104.6c.5-.3.9-.6,1.2-1.1.3-.4.6-1,.7-1.5.2-.6.2-1.2.2-1.8s0-1.2-.2-1.8c-.1-.6-.4-1.1-.7-1.6s-.7-.9-1.2-1.2c-.5-.3-1.1-.4-1.8-.4s-1.3.1-1.8.4c-.5.3-.9.7-1.2,1.1-.3.5-.6,1-.7,1.6s-.2,1.2-.2,1.8,0,1.2.2,1.8c.2.6.4,1.1.7,1.5.3.4.7.8,1.2,1.1.5.3,1.1.4,1.8.4s1.2-.1,1.7-.4h0ZM127.6,96.6c-.2-.3-.4-.6-.7-.8-.3-.2-.6-.4-1-.5-.4-.1-.8-.2-1.2-.2s-.7,0-1,.1c-.3,0-.6.2-.9.4-.3.2-.5.4-.7.6-.2.3-.3.6-.3,1s0,.6.2.8c.2.2.4.4.6.6.3.2.5.3.8.4.3.1.6.2.8.2l2,.4c.4,0,.8.2,1.3.3.4.2.8.4,1.1.6.3.3.6.6.8,1,.2.4.3.9.3,1.4s-.1,1.2-.4,1.7c-.3.5-.7.8-1.1,1.1-.5.3-1,.5-1.6.6s-1.2.2-1.7.2c-1.4,0-2.6-.3-3.5-1-.9-.7-1.4-1.8-1.5-3.3h1.5c0,1,.4,1.8,1.1,2.3.7.5,1.5.8,2.5.8s.7,0,1.1-.1c.4,0,.7-.2,1.1-.4.3-.2.6-.4.8-.7.2-.3.3-.6.3-1.1s0-.7-.2-.9c-.1-.2-.4-.4-.6-.6-.2-.2-.5-.3-.9-.4-.3-.1-.6-.2-1-.3l-1.9-.4c-.5-.1-.9-.3-1.3-.4-.4-.2-.8-.4-1.1-.6-.3-.2-.5-.5-.7-.9-.2-.4-.3-.8-.3-1.3s.1-1.1.4-1.6c.3-.4.6-.8,1.1-1.1.4-.3.9-.5,1.5-.6.5-.1,1.1-.2,1.6-.2s1.2,0,1.7.2c.5.2,1,.4,1.4.7.4.3.7.7,1,1.2.2.5.4,1.1.4,1.7h-1.5c0-.5-.1-.8-.3-1.2h0ZM134.1,96.1c.3-.5.6-.9,1-1.3.4-.3.9-.6,1.5-.7.6-.2,1.2-.2,1.9-.2s1.1,0,1.6.2c.5.1,1,.3,1.4.6.4.3.8.7,1,1.2.3.5.4,1.2.4,2v6.4c0,.6.3.9.9.9s.3,0,.5,0v1.2c-.2,0-.3,0-.5,0-.1,0-.3,0-.5,0-.4,0-.7,0-.9-.2-.2-.1-.4-.2-.5-.4-.1-.2-.2-.4-.2-.7,0-.3,0-.5,0-.9h0c-.3.4-.5.7-.8,1-.3.3-.6.6-.9.8-.3.2-.7.4-1.2.5s-.9.2-1.5.2-1.1,0-1.6-.2c-.5-.1-.9-.3-1.3-.6-.4-.3-.7-.7-.9-1.1-.2-.4-.3-1-.3-1.6s.2-1.5.6-2c.4-.5.9-.8,1.5-1.1.6-.2,1.3-.4,2.1-.5.8-.1,1.6-.2,2.4-.3.3,0,.6,0,.8-.1.2,0,.4-.1.6-.2.2-.1.3-.3.4-.5,0-.2.1-.5.1-.8,0-.5,0-.9-.2-1.2-.2-.3-.4-.6-.7-.8-.3-.2-.6-.3-1-.4-.4,0-.8-.1-1.2-.1-.9,0-1.7.2-2.3.7-.6.4-.9,1.2-.9,2.2h-1.5c0-.7.2-1.3.4-1.8h0ZM141.5,99.8c0,.2-.3.3-.5.4-.3,0-.5.1-.7.2-.6.1-1.3.2-1.9.3-.7,0-1.3.2-1.8.4-.5.2-1,.4-1.4.7-.4.3-.5.8-.5,1.4s0,.7.2,1c.1.3.4.5.6.8.3.2.5.4.9.5.3.1.7.2,1,.2.6,0,1.1,0,1.6-.3.5-.2,1-.4,1.4-.8.4-.3.7-.7.9-1.2.2-.5.3-1,.3-1.6v-1.9h0ZM149.3,94.3v2.8h0c.4-1,1-1.8,1.8-2.3.8-.5,1.7-.8,2.8-.7v1.5c-.7,0-1.3,0-1.8.3-.6.2-1,.5-1.4.9s-.7.9-.9,1.4c-.2.5-.3,1.1-.3,1.8v6.5h-1.5v-12.1h1.4ZM159.1,94.3v2.1h0c.3-.7.8-1.3,1.5-1.8.7-.4,1.5-.7,2.4-.7s1.6.1,2.1.3c.6.2,1,.5,1.4.9.3.4.6.9.7,1.5.1.6.2,1.2.2,2v7.8h-1.5v-7.6c0-.5,0-1-.1-1.4,0-.4-.3-.8-.5-1.2-.2-.3-.6-.6-1-.8-.4-.2-.9-.3-1.5-.3s-1.1.1-1.6.3c-.5.2-.9.5-1.2.9-.3.4-.6.8-.8,1.3-.2.5-.3,1.1-.3,1.7v7.1h-1.5v-12.1h1.5ZM173,103.9h2v2.5h-2v-2.5h0ZM183.8,95.6c-.5.3-1,.7-1.3,1.2-.4.5-.6,1-.8,1.7-.2.6-.3,1.2-.3,1.9s0,1.3.3,1.9.4,1.2.8,1.7c.4.5.8.9,1.3,1.2.5.3,1.2.4,1.9.4s1.3-.1,1.9-.4c.5-.3,1-.7,1.3-1.2.4-.5.6-1,.8-1.7s.3-1.2.3-1.9,0-1.3-.3-1.9c-.2-.6-.4-1.2-.8-1.7-.4-.5-.8-.9-1.3-1.2-.5-.3-1.2-.4-1.9-.4s-1.3.1-1.9.4h0ZM188.1,94.4c.7.3,1.3.8,1.8,1.4.5.6.9,1.3,1.1,2,.2.8.4,1.6.4,2.5s-.1,1.7-.4,2.5c-.2.8-.6,1.5-1.1,2-.5.6-1.1,1-1.8,1.4-.7.3-1.5.5-2.5.5s-1.7-.2-2.5-.5c-.7-.3-1.3-.8-1.8-1.4-.5-.6-.9-1.3-1.1-2-.2-.8-.4-1.6-.4-2.5s.1-1.7.4-2.5c.2-.8.6-1.5,1.1-2,.5-.6,1.1-1,1.8-1.4.7-.3,1.5-.5,2.5-.5s1.7.2,2.5.5h0ZM196.9,94.3v2.8h0c.4-1,1-1.8,1.8-2.3.8-.5,1.7-.8,2.8-.7v1.5c-.7,0-1.3,0-1.8.3-.6.2-1,.5-1.4.9-.4.4-.7.9-.9,1.4-.2.5-.3,1.1-.3,1.8v6.5h-1.5v-12.1h1.4ZM214.8,107.8c-.2.7-.5,1.3-.9,1.8-.4.5-1,.9-1.7,1.2-.7.3-1.5.4-2.5.4s-1.2,0-1.8-.2c-.6-.1-1.1-.4-1.6-.7-.5-.3-.8-.7-1.2-1.1-.3-.5-.5-1-.5-1.7h1.5c0,.5.2.8.5,1.1.2.3.5.6.8.7.3.2.7.3,1.1.4.4,0,.8.1,1.2.1,1.4,0,2.4-.4,3-1.2.6-.8.9-1.9.9-3.4v-1.6h0c-.3.8-.8,1.4-1.5,1.8-.7.5-1.4.7-2.3.7s-1.8-.2-2.5-.5c-.7-.3-1.3-.8-1.7-1.3s-.8-1.2-1-2c-.2-.8-.3-1.6-.3-2.4s.1-1.6.4-2.4c.2-.7.6-1.4,1.1-2,.5-.6,1-1,1.7-1.3.7-.3,1.5-.5,2.3-.5s.9,0,1.3.2c.4.1.8.3,1.1.5.3.2.6.5.9.8.3.3.5.6.6.9h0v-2.1h1.5v11.2c0,.9,0,1.7-.3,2.4h0ZM211.4,104.6c.5-.3.9-.6,1.2-1.1.3-.4.6-1,.7-1.5s.2-1.2.2-1.8,0-1.2-.2-1.8c-.1-.6-.4-1.1-.7-1.6-.3-.5-.7-.9-1.2-1.2-.5-.3-1.1-.4-1.8-.4s-1.3.1-1.8.4c-.5.3-.9.7-1.2,1.1-.3.5-.6,1-.7,1.6-.1.6-.2,1.2-.2,1.8s0,1.2.2,1.8c.2.6.4,1.1.7,1.5.3.4.7.8,1.2,1.1.5.3,1.1.4,1.8.4s1.2-.1,1.7-.4h0Z"/>
        <path class="cls-1" d="M46.5,52.8c0,2.2-.3,4.3-.6,6.3-.4,2-1,3.9-1.9,5.7-1,1.9-2.1,3.5-3.5,4.8-1.3,1.3-2.8,2.3-4.4,3.1-1.6.8-3.2,1.4-4.8,1.7-1.7.4-3.3.5-4.8.5-3.3,0-6.3-.6-8.9-1.9-2.6-1.3-4.8-3-6.6-5.2-1.8-2.2-3.2-4.8-4.1-7.7-.9-2.9-1.4-6-1.4-9.2s.4-7.8,1.2-11.3c.8-3.4,2.1-6.3,3.9-8.8,1.8-2.4,4-4.3,6.8-5.7,2.7-1.3,6-2,9.8-2s4.2.3,6.2.9c2,.6,3.8,1.5,5.4,2.7,1.6,1.2,3,2.6,4.2,4.3,1.2,1.7,2,3.7,2.5,5.8h5.6c-.6-3.1-1.7-5.8-3.1-8.1-1.5-2.3-3.2-4.2-5.4-5.7-2.1-1.5-4.5-2.7-7.2-3.4-2.7-.8-5.5-1.1-8.6-1.1-4.6,0-8.5.8-11.9,2.3-3.4,1.6-6.2,3.7-8.4,6.4-2.2,2.7-3.9,5.9-5,9.6-1.1,3.7-1.6,7.6-1.6,11.9s.6,9.7,1.9,13.6c1.3,3.9,3,7.1,5.3,9.6s4.9,4.5,8.1,5.8c3.1,1.3,6.5,1.9,10.2,1.9s5.4-.3,7.7-.8c2.3-.5,4.2-1.3,6-2.3,1.7-1,3.2-2.2,4.6-3.6,1.3-1.4,2.5-3,3.5-4.7v9.9h4.7v-30h-24.8v4.7h19.6ZM56.3,60.8c0,3.2.5,5.9,1.6,8.3,1,2.3,2.5,4.3,4.4,5.9,1.9,1.6,4.1,2.8,6.7,3.5,2.6.8,5.4,1.2,8.4,1.2,6.7,0,11.9-1.5,15.6-4.4,3.7-3,5.6-7.1,5.6-12.5s-.5-5.1-1.4-7c-.9-1.9-2.2-3.4-3.8-4.6-1.6-1.2-3.3-2.1-5.4-2.8-2-.7-4.1-1.3-6.3-1.8-2.2-.5-4.3-1-6.3-1.5-2.1-.5-4-1-5.7-1.8-1.7-.7-3.2-1.7-4.4-2.8-1.2-1.1-1.9-2.6-2.3-4.5-.3-1.5-.2-3,.2-4.5s1.2-2.9,2.3-4.1c1.1-1.2,2.6-2.2,4.6-3,1.9-.8,4.3-1.2,7.1-1.2s3.6.2,5.3.7c1.7.5,3.3,1.2,4.6,2.3s2.4,2.3,3.2,4c.8,1.6,1.2,3.5,1.2,5.7h5.2c0-2.4-.4-4.6-1.2-6.7-.8-2.1-2-3.9-3.6-5.5-1.6-1.6-3.6-2.8-6.1-3.7-2.4-.9-5.3-1.4-8.6-1.4s-6.1.4-8.6,1.3c-2.5.9-4.5,2-6.2,3.5-1.6,1.4-2.9,3.1-3.7,5-.8,1.9-1.2,3.8-1.2,5.8,0,2.9.5,5.2,1.5,7.1,1,1.9,2.4,3.4,4,4.6,1.6,1.2,3.5,2.1,5.6,2.8,2.1.7,4.3,1.3,6.5,1.8,2.2.5,4.4,1,6.5,1.6,2.1.5,4,1.2,5.6,2.1,1.6.9,3,2,4,3.4,1,1.4,1.5,3.2,1.5,5.5s-.3,3.1-.8,4.6c-.6,1.5-1.4,2.7-2.6,3.8-1.2,1.1-2.7,2-4.6,2.6-1.9.6-4.1,1-6.7,1s-4.3-.3-6.2-.8c-1.9-.5-3.6-1.3-5.1-2.5-1.5-1.1-2.7-2.6-3.6-4.4-.9-1.8-1.5-4-1.7-6.6h-5.3ZM125.9,33.4l7.3,22.8h-14.9l7.5-22.8h0ZM98.5,78.2h12.7l3.9-11.9h21.4l3.8,11.9h13.2l-20.5-58.1h-13.7l-20.7,58.1h0ZM180.7,30.2c2.5,0,4.4.3,5.6,1,2.2,1.2,3.3,3.6,3.3,7.1s-1.1,5.4-3.4,6.5c-1.3.6-3.2.9-5.8.9h-13.1v-15.6h13.4ZM183.3,20.1h-27.8v58.1h11.9v-22.8h11.8c3.4,0,5.7.6,6.9,1.8,1.2,1.2,1.9,3.7,1.9,7.4v5.4c.1,1.7.3,3.4.6,5,.2.8.4,1.8.8,3.1h13.4v-1.5c-1.2-.7-1.9-1.8-2.2-3.3-.2-.9-.3-2.7-.3-5.4v-3.9c0-4.1-.6-7.1-1.7-9.1-1.1-2-3-3.5-5.7-4.6,3.2-1.1,5.5-3,6.9-5.7,1.4-2.7,2.1-5.4,2.1-8.1s-.4-4.3-1.1-6.1c-.7-1.8-1.7-3.4-2.9-4.9-1.5-1.8-3.3-3.1-5.4-4.1-2.1-.9-5.2-1.4-9.2-1.5h0ZM247.1,78.2h6.4V20.1h-5.5v50.7h-.2l-33.6-50.7h-6.2v58.1h5.5V27.5h.2l33.4,50.7h0Z"/>
        <path class="cls-1" d="M258.6,1.3c-1.6.9-2.9,2.1-3.8,3.7-.9,1.6-1.4,3.3-1.4,5.1s.4,3.4,1.3,5c.9,1.6,2.1,2.9,3.8,3.8,1.6.9,3.3,1.3,5,1.3s3.4-.4,5-1.3c1.6-.9,2.9-2.1,3.7-3.8.9-1.6,1.3-3.3,1.3-5s-.5-3.5-1.4-5.1c-.9-1.6-2.2-2.9-3.8-3.7-1.6-.9-3.3-1.3-5-1.3s-3.4.4-5,1.3h0ZM267.7,2.8c1.4.7,2.4,1.8,3.2,3.1s1.1,2.8,1.1,4.2-.4,2.9-1.1,4.2c-.7,1.3-1.8,2.4-3.1,3.1-1.3.7-2.7,1.1-4.2,1.1s-2.9-.4-4.2-1.1c-1.3-.7-2.4-1.8-3.1-3.1-.7-1.3-1.1-2.7-1.1-4.2s.4-2.9,1.1-4.2c.8-1.4,1.8-2.4,3.2-3.1,1.3-.7,2.7-1.1,4.2-1.1s2.8.4,4.1,1.1h0ZM265.6,13.7c-.6.5-1.3.7-2.1.7s-1.8-.4-2.5-1.1c-.6-.7-.9-1.7-.9-3.1s.3-2.4,1-3.2c.7-.7,1.5-1.1,2.5-1.1s1.3.2,1.8.5c.5.4.9.9,1.2,1.5l1.6-.4c-.3-1-.8-1.7-1.6-2.3-.8-.6-1.8-.9-3-.9s-2,.2-2.8.7c-.8.4-1.5,1.1-1.9,2-.4.9-.7,1.9-.7,3.1,0,1.8.5,3.2,1.5,4.2,1,1,2.3,1.5,3.8,1.5s2.3-.3,3.2-1c.9-.7,1.4-1.6,1.7-2.7l-1.7-.5c-.2.8-.6,1.4-1.2,1.9h0Z"/>
      </g>
    </g>
  </g>
</svg>