<?xml version="1.0" encoding="UTF-8"?>
<svg xmlns="http://www.w3.org/2000/svg" version="1.1" viewBox="0 0 512 512">
  <defs>
    <style>
      .cls-1 {
        fill: #221bff;
      }
    </style>
  </defs>
  <!-- Generator: Adobe Illustrator 28.6.0, SVG Export Plug-In . SVG Version: 1.2.0 Build 709)  -->
  <g>
    <g id="Layer_1">
      <path class="cls-1" d="M424.6,75.5v1.9h84.9v337.6c0,45.8-37.2,83-83,83H87c-45.8,0-83-37.2-83-83V35h420.6v40.5ZM44.5,73.7h-1.9v341.4c0,24.5,19.8,44.3,44.3,44.3h339.5c24.5,0,44.3-19.8,44.3-44.3V116.1h-46.2v297.1h-38.7V73.7H44.5ZM171.9,204.7h1.9v-46.2h-46.2v46.2h44.3ZM88.9,119.9h123.5v123.5h-123.5v-123.5ZM339.7,289.6v38.7H88.9v-38.7h250.8ZM339.7,374.5v38.7H88.9v-38.7h250.8Z"/>
    </g>
  </g>
</svg>