<svg width="51" height="50" viewBox="0 0 51 50" fill="none" xmlns="http://www.w3.org/2000/svg">
<path d="M39.3539 20.0247C40.8984 20.9194 42.4029 21.7902 43.9069 22.662C45.0164 23.3053 46.1309 23.9403 47.2334 24.5958C49.2458 25.7923 50.4134 27.5739 50.8001 29.8804C50.8423 30.1327 50.8437 30.3939 50.844 30.6509C50.8471 33.2298 50.8557 35.8088 50.8425 38.3876C50.8336 40.1369 50.1766 41.6429 49.0571 42.9603C48.4571 43.6664 47.7156 44.1874 46.9191 44.6453C44.967 45.7672 43.0191 46.8969 41.0751 48.0334C39.7962 48.7812 38.4194 49.1236 36.9478 49.0447C35.8694 48.9867 34.838 48.7073 33.8975 48.1665C31.3895 46.7246 28.8877 45.2718 26.3932 43.8065C26.0274 43.5916 25.7557 43.5486 25.3576 43.7843C22.9174 45.2293 20.4537 46.634 18.0017 48.0588C16.7334 48.7958 15.3665 49.1217 13.9109 49.0452C12.6503 48.9788 11.4978 48.5554 10.4115 47.9161C8.43416 46.7521 6.4298 45.6337 4.46752 44.4448C2.14835 43.0397 0.898504 40.9623 0.864799 38.2181C0.834515 35.7541 0.858988 33.2896 0.858303 30.8253C0.85779 29.0626 1.46345 27.5263 2.57625 26.1807C3.15694 25.4786 3.87024 24.9433 4.6559 24.4902C7.11229 23.0731 9.55876 21.6385 12.0184 20.2269C12.2839 20.0745 12.3565 19.9048 12.3556 19.6182C12.3469 16.6954 12.3113 13.772 12.362 10.8501C12.4076 8.21775 13.5517 6.12727 15.7838 4.73132C17.5714 3.61325 19.4235 2.59957 21.2489 1.54306C21.7299 1.26484 22.211 0.985407 22.7046 0.731254C23.4855 0.329046 24.3199 0.123384 25.1954 0.0358583C26.816 -0.126469 28.2918 0.277461 29.6826 1.08807C31.628 2.22195 33.5699 3.36185 35.5282 4.47252C37.1334 5.38304 38.2627 6.68888 38.9169 8.41464C39.2032 9.16971 39.3479 9.95727 39.3505 10.7622C39.36 13.685 39.3542 16.6077 39.3542 19.5305C39.3539 19.6866 39.3539 19.8431 39.3539 20.0247ZM25.8296 38.9162C25.8871 38.9002 25.9021 38.8992 25.914 38.8923C28.3792 37.4644 30.8622 36.066 33.3021 34.5958C34.6483 33.7847 35.3607 32.5354 35.3618 30.9242C35.3635 28.1888 35.3582 25.4534 35.3683 22.718C35.3693 22.4405 35.2882 22.2866 35.0425 22.1454C32.6833 20.7904 30.3432 19.4013 27.9751 18.0623C26.5499 17.2565 25.083 17.2893 23.662 18.1013C21.337 19.43 19.0278 20.7868 16.7043 22.1184C16.436 22.2721 16.3325 22.4377 16.3341 22.7529C16.3472 25.4453 16.3438 28.1378 16.3409 30.8301C16.339 32.5622 17.1262 33.8339 18.5804 34.7122C19.2264 35.1026 19.886 35.4705 20.5392 35.8492C22.3013 36.8706 24.0631 37.8922 25.8296 38.9162ZM12.3502 24.6419C12.1597 24.7435 12.0463 24.7996 11.937 24.863C10.1624 25.8937 8.3955 26.9382 6.61168 27.9524C5.4236 28.6279 4.8116 29.6405 4.79928 30.9928C4.77755 33.3567 4.78062 35.7209 4.79824 38.0848C4.808 39.3908 5.39691 40.3897 6.52407 41.0476C8.59191 42.2546 10.6577 43.4652 12.7387 44.6489C13.7644 45.2322 14.8483 45.2566 15.8776 44.679C17.7911 43.6053 19.6783 42.4836 21.5752 41.3802C21.652 41.3355 21.7182 41.2719 21.8065 41.2039C21.691 41.1254 21.6121 41.064 21.5264 41.0144C19.9104 40.0795 18.2967 39.141 16.6763 38.2139C15.3739 37.469 14.3205 36.4693 13.5458 35.1791C12.7319 33.8235 12.3512 32.3469 12.3502 30.768C12.349 28.9054 12.3498 27.0429 12.3498 25.1803C12.3502 25.0245 12.3502 24.8689 12.3502 24.6419ZM29.8726 41.2051C30.0228 41.3061 30.1335 41.3898 30.2526 41.459C32.0644 42.5086 33.8768 43.5572 35.6904 44.6039C36.7945 45.2412 37.9182 45.2497 39.0163 44.623C41.1069 43.4298 43.1854 42.2145 45.2602 40.9938C46.3436 40.3564 46.8947 39.3743 46.9053 38.1226C46.9255 35.7312 46.9291 33.3393 46.9039 30.9481C46.8902 29.6503 46.3102 28.654 45.1695 27.9983C43.564 27.0756 41.9675 26.1369 40.3661 25.2071C40.0507 25.024 39.7299 24.8503 39.3542 24.6402C39.3542 24.8647 39.3542 25.0186 39.3542 25.1727C39.3542 27.0918 39.3588 29.0106 39.3505 30.9297C39.3488 31.3138 39.3274 31.7026 39.2651 32.0809C38.8368 34.6849 37.5235 36.7007 35.2627 38.0655C34.275 38.6617 33.2695 39.2283 32.2723 39.8085C31.4855 40.2659 30.6993 40.7238 29.8726 41.2051ZM16.3418 17.7069C16.5125 17.6207 16.6254 17.5703 16.732 17.5088C18.3855 16.5554 20.0276 15.5818 21.6932 14.6507C24.4511 13.1089 27.2403 13.1249 29.9985 14.6316C31.6853 15.5529 33.3276 16.5565 34.9908 17.5213C35.0952 17.5818 35.2085 17.6272 35.341 17.691C35.3506 17.5695 35.3611 17.4988 35.3611 17.4279C35.3619 15.1655 35.3631 12.9031 35.3592 10.6405C35.3588 10.4852 35.3325 10.3273 35.2985 10.1751C35.0786 9.19636 34.5085 8.48015 33.652 7.98423C31.6182 6.80684 29.5861 5.62636 27.5481 4.45636C26.4149 3.80585 25.272 3.82029 24.1387 4.46616C23.5323 4.81162 22.9304 5.16482 22.327 5.51527C20.8612 6.36629 19.3854 7.20063 17.9333 8.07451C16.8937 8.70009 16.3435 9.64155 16.3423 10.8781C16.3404 12.983 16.3418 15.088 16.3418 17.1931C16.3418 17.3449 16.3418 17.4969 16.3418 17.7069Z" fill="#C0BFFA"/>
</svg>
