<?xml version="1.0" encoding="UTF-8"?>
<svg id="Layer_1" data-name="Layer 1" xmlns="http://www.w3.org/2000/svg" viewBox="0 0 34.02 34.02">
  <defs>
    <style>
      .cls-1 {
        fill: #fff;
      }

      .cls-2 {
        fill: #03699d;
      }
    </style>
  </defs>
  <rect class="cls-2" width="34.02" height="34.02"/>
  <path class="cls-1" d="m22.52,15.2s-.33.44-.24.88c.1.43.59.69.59.69,0,0,.33-.44.24-.88-.1-.43-.59-.69-.59-.69"/>
  <path class="cls-1" d="m21.98,17.74s.33-.44.24-.88c-.1-.43-.59-.69-.59-.69,0,0-.33.44-.24.88.1.43.59.69.59.69"/>
  <path class="cls-1" d="m23.35,17.26s.35.36.75.32c.4-.04.7-.45.7-.45,0,0-.35-.36-.75-.32-.4.04-.7.45-.7.45"/>
  <path class="cls-1" d="m23.93,15.36c-.33.33-.28.92-.28.92,0,0,.58.05.9-.28.33-.33.28-.92.28-.92,0,0-.58-.05-.9.28"/>
  <path class="cls-1" d="m23.21,18.58c.4.05.78-.3.78-.3,0,0-.27-.42-.67-.47-.4-.05-.78.3-.78.3,0,0,.27.42.67.47"/>
  <path class="cls-1" d="m23.56,25.02h-2.99c-.23,0-.42.19-.42.42s.19.42.42.42h2.99c.23,0,.42-.19.42-.42s-.19-.42-.42-.42"/>
  <path class="cls-1" d="m23.56,29.69h-2.99c-.23,0-.42.19-.42.42s.19.42.42.42h2.99c.23,0,.42-.19.42-.42s-.19-.42-.42-.42"/>
  <path class="cls-1" d="m10.1,23.99c-.07-.02-.14-.04-.21-.05,0,0,.08.02.21.05"/>
  <path class="cls-1" d="m14.95,25.82c.2,0,.39,0,.59-.02v1.56h-.59v-1.55Zm8.5.34h-2.77c-.13,0-.24.11-.24.24v.84l-1.81.2-2.64-.06v-1.62c.35-.04.7-.11,1.05-.21,2.55-.72,3.1-2.3,3.05-3.76-.06-1.48.42-2.06,1.1-2.32.2-.07.39-.12.57-.15,0,.36.08.79.24,1.29.06,0,.12,0,.18-.02-.17-.52-.25-.94-.25-1.3.35-.04.6-.02.6-.02,0,0-.24-.13-.57-.41.11-.7.53-1.13.96-1.58.24-.24.48-.49.67-.79l-.15-.1c-.18.28-.42.53-.65.76-.42.43-.85.87-.99,1.57-.14-.12-.29-.27-.44-.44-.63-.7-1.44-.19-2.59.89-1.15,1.07-2.6,1.11-4.02-.34-1.87-1.91-3.5-1.9-4.62-1.79.76.32,1.03,1.04,1.42,2.86.41,1.91,1.43,2.77,2.83,2.89-.65.11-.82.2-1.86.92-.81.56-1.96.38-2.43.28.85.27,1.86,1.16,2.77,1.47.53.18,1.08.29,1.65.34v1.55l-5.02-.11v1.08l9.13-.2,1.81.2v.84c0,.13.11.24.24.24h2.77c.13,0,.24-.11.24-.24v-2.75c0-.13-.11-.24-.24-.24"/>
  <path class="cls-1" d="m9.24,28.14c0,.23-.16.41-.36.41h-.21c-.19,0-.35-.18-.35-.41v-.75c0-.23.16-.41.35-.41h.21c.2,0,.36.18.36.41v.75Z"/>
  <path class="cls-1" d="m3.79,4.68c0,.28-.1.51-.29.68-.17.15-.39.22-.64.22-.31,0-.55-.1-.72-.31-.13-.16-.2-.35-.2-.56,0-.17.04-.32.12-.45l.41-.09c-.09.14-.13.31-.13.49,0,.16.05.29.14.39.09.1.22.14.39.14s.29-.04.38-.13c.09-.09.14-.21.14-.37v-1.63l.41-.22v1.85Z"/>
  <path class="cls-1" d="m4.11,4.95l.21-.4h.52c.11,0,.17-.07.17-.19,0-.24-.12-.43-.35-.56l.2-.35c.34.2.53.47.55.81,0,.11.03.18.07.23.04.04.11.06.21.06h.25v.4h-.27c-.16,0-.3-.04-.41-.13-.08.09-.2.13-.35.13h-.8Z"/>
  <path class="cls-1" d="m7,4.39c.16-.13.29-.26.36-.39-.13-.12-.26-.18-.37-.18s-.23.06-.35.18c.08.15.2.28.36.39m.36.16h.9v.4s-.94,0-.94,0c-.11,0-.22-.03-.32-.08-.1.05-.21.08-.32.08h-.94v-.4h.89c-.1-.07-.18-.13-.25-.19-.04-.03-.09-.09-.17-.18-.02-.03-.04-.05-.06-.07v-.19c.1-.15.22-.26.37-.35.15-.09.31-.13.47-.13s.31.04.47.13c.15.09.28.21.38.36v.18c-.15.18-.31.33-.49.45"/>
  <path class="cls-1" d="m8.07,4.95v-.4h.21c.1,0,.17-.02.22-.07.04-.04.06-.12.06-.22v-1.21l.41-.22v1.43c0,.21-.07.38-.19.51-.12.12-.28.17-.47.17h-.23Z"/>
  <polygon class="cls-1" points="9.56 4.95 9.56 3.05 9.98 2.83 9.98 4.95 9.56 4.95"/>
  <path class="cls-1" d="m11.31,4.04c0-.14-.06-.22-.19-.22-.08,0-.14.03-.19.1-.04.06-.07.15-.07.26,0,.23.08.35.25.35.09,0,.15-.02.19-.07v-.42Zm0,.82c-.07.01-.14.02-.21.02-.2,0-.36-.08-.48-.23-.1-.13-.15-.28-.15-.46,0-.24.07-.43.2-.57.12-.12.27-.18.46-.18s.35.06.46.19c.09.11.14.25.14.42v.7c0,.26-.07.46-.2.61-.13.14-.3.21-.52.21-.14,0-.27-.04-.4-.11v-.36c.12.07.24.1.36.1.21,0,.33-.11.36-.35"/>
  <path class="cls-1" d="m14.14,4.04c0-.14-.06-.22-.18-.22-.08,0-.14.03-.18.1-.05.06-.07.15-.07.26,0,.25.08.37.25.37.13,0,.19-.06.19-.18v-.33Zm-1.3,1.95v-.82c0-.19.05-.33.16-.45.1-.1.23-.15.39-.16-.06-.09-.09-.21-.09-.36,0-.24.07-.43.2-.57.12-.12.27-.18.46-.18s.35.06.46.19c.09.11.14.25.14.42v.39c0,.16-.06.29-.16.38-.11.09-.26.14-.45.14h-.46c-.08,0-.14.02-.18.05-.03.04-.05.1-.05.18v.58l-.41.22Z"/>
  <path class="cls-1" d="m17.03,4.55h.3v.4h-.33c-.17,0-.31-.05-.42-.14-.12.1-.27.14-.44.14h-1.24l.21-.4h.43v-1.07l.41-.22v1.29h.16c.1,0,.17-.02.21-.07.04-.04.06-.12.06-.22v-1.21l.41-.22v1.48c0,.09.02.15.05.18.03.04.09.05.18.05"/>
  <path class="cls-1" d="m17.12,4.95v-.4h.35c.08,0,.14-.02.18-.06.04-.04.05-.1.05-.18v-.43l.41-.22v.65c0,.09.02.15.05.18.04.04.09.06.18.06h.22c.08,0,.14-.02.18-.06.04-.04.05-.1.05-.18v-.52l.41-.22v.74c0,.09.02.15.05.18.04.04.1.06.18.06h.22c.08,0,.14-.02.18-.06.04-.04.05-.1.05-.18v-.61l.41-.22v.77c0,.1.02.18.06.22.04.04.11.07.21.07h.3v.4h-.33c-.18,0-.33-.05-.44-.16-.1.1-.23.16-.4.16h-.32c-.16,0-.3-.05-.4-.14-.09.09-.22.14-.37.14h-.33c-.16,0-.29-.05-.4-.14-.1.1-.24.14-.4.14h-.39Z"/>
  <path class="cls-1" d="m20.7,4.95v-.4h.21c.1,0,.17-.02.22-.07.04-.04.06-.12.06-.22v-1.21l.41-.22v1.43c0,.21-.07.38-.19.51-.12.12-.28.17-.47.17h-.23Z"/>
  <polygon class="cls-1" points="22.19 4.95 22.19 3.05 22.6 2.83 22.6 4.95 22.19 4.95"/>
  <path class="cls-1" d="m5.79,7.09c-.07,0-.12-.02-.16-.06-.04-.04-.06-.09-.06-.16,0-.14.07-.21.22-.21.07,0,.12.02.16.06.04.04.06.09.06.15,0,.15-.07.22-.21.22m-.51,0c-.06,0-.12-.02-.16-.06-.04-.04-.06-.09-.06-.16s.02-.11.06-.15c.04-.04.09-.06.16-.06s.12.02.16.06c.04.04.06.09.06.15,0,.15-.07.22-.21.22m-.31,1.53c-.19,0-.33-.06-.44-.19-.09-.11-.14-.25-.14-.42v-.33l.41-.22v.53c0,.09.02.15.06.18.04.04.1.06.18.06h1.07c.08,0,.14-.02.18-.06.04-.04.05-.1.05-.18v-.6l.41-.22v.85c0,.2-.06.36-.19.47-.11.1-.25.14-.42.14h-1.17Z"/>
  <path class="cls-1" d="m7.94,8.62c-.2,0-.35-.06-.46-.19-.09-.11-.14-.25-.14-.42v-1.29l.41-.22v1.48c0,.09.02.15.05.18.03.04.09.06.18.06h.3v.4h-.33Z"/>
  <path class="cls-1" d="m8.08,8.62v-.4h.35c.08,0,.14-.02.18-.06.04-.04.05-.1.05-.18v-.43l.41-.22v.65c0,.09.02.15.05.18.04.04.09.06.18.06h.22c.08,0,.14-.02.18-.06.04-.04.05-.1.05-.18v-.52l.41-.22v.74c0,.09.02.15.05.18.04.04.1.06.18.06h.22c.08,0,.14-.02.18-.06.04-.04.05-.1.05-.18v-.61l.41-.22v.77c0,.1.02.18.07.22s.11.07.21.07h.3v.4h-.33c-.18,0-.33-.05-.44-.16-.1.1-.23.16-.4.16h-.32c-.16,0-.3-.05-.4-.14-.09.09-.22.14-.37.14h-.33c-.16,0-.29-.05-.4-.14-.1.1-.24.14-.4.14h-.39Z"/>
  <path class="cls-1" d="m11.65,8.62v-.4h.35c.08,0,.14-.02.18-.06.04-.04.05-.1.05-.18v-.43l.41-.22v.65c0,.09.02.15.05.18.04.04.09.06.18.06h.22c.08,0,.14-.02.18-.06.04-.04.05-.1.05-.18v-.52l.41-.22v.74c0,.09.02.15.05.18.04.04.1.06.18.06h.22c.08,0,.14-.02.18-.06.04-.04.05-.1.05-.18v-.61l.41-.22v.84c0,.2-.06.35-.18.46-.1.1-.24.15-.41.15h-.32c-.16,0-.3-.05-.4-.14-.09.09-.22.14-.37.14h-.33c-.16,0-.29-.05-.4-.14-.1.1-.24.14-.4.14h-.39Z"/>
  <path class="cls-1" d="m16.18,7.71c0-.14-.06-.22-.19-.22-.17,0-.25.12-.25.36,0,.21.1.33.29.35.03,0,.08.01.15.02v-.51Zm.1-1.13l-.1.19h-.61l.11-.19h.1s-.04-.09-.04-.13c0-.07.03-.13.08-.18.05-.05.11-.08.19-.08.07,0,.13.02.18.07v.19c-.05-.05-.1-.07-.16-.07-.07,0-.11.03-.11.1,0,.03.01.07.04.1h.32Zm.71,1.65v.4h-.4c-.01.2-.1.36-.26.47-.13.1-.28.14-.46.14-.14,0-.27-.04-.4-.11v-.36c.12.07.24.1.35.1.09,0,.17-.02.24-.07.07-.05.11-.11.12-.18-.02,0-.04,0-.08,0-.04,0-.07,0-.09,0-.23-.02-.4-.11-.52-.27-.1-.13-.15-.29-.15-.47,0-.24.07-.43.2-.57.12-.12.27-.18.46-.18s.35.06.46.19c.09.11.14.25.14.42v.51h.4Z"/>
  <path class="cls-1" d="m17.99,8.29c.17,0,.25-.14.25-.41s-.08-.39-.25-.39-.25.13-.25.39.08.41.25.41m.9-.07h.29v.4h-.34c-.16,0-.29-.04-.39-.12-.12.12-.27.19-.47.19s-.35-.06-.47-.19c-.11.08-.24.12-.39.12h-.33v-.4h.3c.08,0,.14-.02.18-.05.04-.04.05-.1.05-.18v-.1c0-.26.07-.46.2-.6.12-.12.27-.19.47-.19.22,0,.39.08.51.24.1.14.15.32.15.54v.1c0,.09.02.15.05.18.04.04.1.05.18.05"/>
  <path class="cls-1" d="m18.99,8.62v-.4h.21c.1,0,.17-.02.22-.07.04-.04.06-.12.06-.22v-1.21l.41-.22v1.43c0,.21-.07.38-.19.51-.12.12-.28.17-.47.17h-.23Z"/>
  <polygon class="cls-1" points="20.47 8.62 20.47 6.72 20.89 6.5 20.89 8.62 20.47 8.62"/>
  <path class="cls-1" d="m22.22,7.71c0-.14-.06-.22-.19-.22-.08,0-.14.03-.19.1-.04.06-.07.15-.07.26,0,.23.08.35.25.35.09,0,.15-.02.19-.07v-.42Zm0,.82c-.07.01-.14.02-.21.02-.2,0-.36-.08-.48-.23-.1-.13-.15-.28-.15-.46,0-.24.07-.43.2-.57.12-.12.27-.18.46-.18s.35.06.46.19c.09.11.14.25.14.42v.7c0,.26-.07.46-.2.61-.13.14-.3.21-.52.21-.14,0-.27-.04-.4-.11v-.36c.12.07.24.1.36.1.21,0,.33-.11.36-.35"/>
  <path class="cls-1" d="m15.26,10.43c-.07,0-.12-.02-.16-.06-.04-.04-.06-.09-.06-.16,0-.14.07-.21.22-.21.07,0,.12.02.16.06s.06.09.06.16c0,.15-.07.22-.21.22m-.09.84c-.06-.05-.12-.07-.19-.07s-.13.03-.17.09c-.05.06-.07.14-.07.23s.02.17.07.23c.04.06.1.08.18.08.08,0,.15-.03.19-.08,0-.02,0-.05,0-.08v-.4Zm-.42-.84c-.07,0-.12-.02-.16-.06-.04-.04-.06-.09-.06-.16,0-.14.07-.21.22-.21.07,0,.12.02.16.06.04.04.06.09.06.16,0,.15-.07.22-.21.22m1.06,1.46h.3v.4h-.33c-.2,0-.36-.07-.47-.2-.1.07-.21.11-.35.11-.2,0-.36-.07-.48-.23-.1-.12-.15-.27-.15-.45,0-.22.07-.39.21-.53.12-.11.26-.17.41-.17.08,0,.15.01.22.05v-.08l.41-.22v1.09c0,.09.02.15.05.18s.1.05.18.05"/>
  <path class="cls-1" d="m16.6,13.02c-.07,0-.12-.02-.16-.06-.04-.04-.06-.09-.06-.16,0-.14.07-.21.22-.21.07,0,.12.02.16.06.04.04.06.09.06.16,0,.15-.07.22-.21.22m-.68-.73v-.4h.29c.08,0,.14-.02.18-.05.04-.04.05-.1.05-.18v-.61l.41-.22v.84c0,.2-.06.36-.18.47-.11.1-.25.15-.42.15h-.33Zm.18.73c-.07,0-.12-.02-.16-.06-.04-.04-.06-.09-.06-.16,0-.14.07-.21.22-.21.07,0,.12.02.16.06s.06.09.06.16c0,.15-.07.22-.21.22"/>
  <path class="cls-1" d="m18.19,11.37c0-.14-.06-.22-.19-.22-.17,0-.25.12-.25.36,0,.21.1.33.29.35.03,0,.08.01.15.02v-.51Zm.81.52v.4h-.4c-.01.2-.1.36-.26.47-.13.1-.28.14-.46.14-.14,0-.27-.04-.4-.11v-.36c.12.07.24.1.35.1.09,0,.17-.02.24-.07.07-.05.11-.11.12-.18-.02,0-.04,0-.08,0-.04,0-.07,0-.09,0-.22-.02-.4-.11-.52-.27-.1-.13-.15-.29-.15-.47,0-.24.07-.43.2-.57.12-.12.27-.18.46-.18s.35.06.46.19c.09.11.14.25.14.42v.51h.4Z"/>
  <path class="cls-1" d="m20.11,10.54c-.07,0-.12-.02-.16-.06-.04-.04-.06-.09-.06-.16,0-.14.07-.21.22-.21.07,0,.12.02.16.06.04.04.06.09.06.16,0,.15-.07.22-.21.22m-.26,1.31c.07-.04.13-.09.18-.16.05-.07.07-.15.07-.23,0-.09-.02-.17-.07-.22-.04-.05-.11-.08-.18-.08-.17,0-.25.1-.25.3,0,.09.02.17.07.24.05.07.1.13.18.16m-.25-1.31c-.07,0-.12-.02-.16-.06-.04-.04-.06-.09-.06-.16,0-.14.07-.21.22-.21.07,0,.12.02.16.06.04.04.06.09.06.16,0,.15-.07.22-.21.22m.78,1.35h.52v.4h-.78c-.11,0-.2,0-.26-.02-.07.02-.16.02-.26.02h-.78v-.4h.52c-.08-.13-.12-.27-.12-.41,0-.22.07-.4.19-.53.12-.12.27-.18.46-.18.21,0,.38.08.5.23.1.13.15.29.15.48,0,.14-.04.27-.12.41"/>
  <path class="cls-1" d="m20.7,12.29v-.4h.21c.1,0,.17-.02.22-.07.04-.04.06-.12.06-.22v-1.21l.41-.22v1.43c0,.21-.07.38-.19.51-.12.12-.28.17-.47.17h-.23Z"/>
  <polygon class="cls-1" points="22.19 12.29 22.19 10.39 22.6 10.17 22.6 12.29 22.19 12.29"/>
  <path class="cls-1" d="m26.62,7.98V2.84h-1.26v5.81l1.26-.67Zm4.2-.01v-3.57c0-.48-.15-.86-.44-1.14-.29-.28-.69-.42-1.19-.42h-1.62v1.21h1.5c.33,0,.5.14.5.43v4.16l1.25-.68Z"/>
</svg>