<svg width="27" height="28" viewBox="0 0 27 28" fill="none" xmlns="http://www.w3.org/2000/svg">
<path d="M5.30852 0.392578H19.3905C20.0351 0.392578 20.6243 0.550456 21.1581 0.866211C21.692 1.18197 22.1168 1.60677 22.4325 2.14062C22.7483 2.67448 22.9062 3.26367 22.9062 3.9082V17.9902C22.9062 18.6348 22.7483 19.224 22.4325 19.7578C22.1168 20.2917 21.692 20.7165 21.1581 21.0322C20.6243 21.348 20.0351 21.5059 19.3905 21.5059H5.30852C4.66398 21.5059 4.07479 21.348 3.54094 21.0322C3.00708 20.7165 2.58228 20.2917 2.26652 19.7578C1.95077 19.224 1.79289 18.6348 1.79289 17.9902V3.9082C1.79289 3.26367 1.95077 2.67448 2.26652 2.14062C2.58228 1.60677 3.00708 1.18197 3.54094 0.866211C4.07479 0.550456 4.66398 0.392578 5.30852 0.392578ZM3.19914 3.9082V17.9902C3.19914 18.446 3.33098 18.8545 3.59465 19.2158C3.85832 19.5771 4.19523 19.8327 4.60539 19.9824V6.87695C4.60539 6.64258 4.69003 6.44076 4.8593 6.27148C5.02857 6.10221 5.23365 6.01758 5.47453 6.01758H7.96477C8.20565 6.01758 8.41073 6.10221 8.58 6.27148C8.74927 6.44076 8.83391 6.64258 8.83391 6.87695V20.0996H10.2402V12.5117C10.2402 12.2708 10.3248 12.0674 10.4941 11.9014C10.6633 11.7354 10.8652 11.6523 11.0995 11.6523H13.5995C13.8404 11.6523 14.0439 11.7354 14.2099 11.9014C14.3759 12.0674 14.4589 12.2708 14.4589 12.5117V20.0996H15.8749V4.75781C15.8749 4.52344 15.9579 4.32324 16.1239 4.15723C16.29 3.99121 16.4934 3.9082 16.7343 3.9082H19.2343C19.4687 3.9082 19.6705 3.99121 19.8398 4.15723C20.009 4.32324 20.0937 4.52344 20.0937 4.75781V19.9824C20.5038 19.8327 20.8407 19.5771 21.1044 19.2158C21.3681 18.8545 21.4999 18.446 21.4999 17.9902V3.9082C21.4999 3.32878 21.2948 2.83236 20.8847 2.41895C20.4745 2.00553 19.9765 1.79883 19.3905 1.79883H5.30852C4.72909 1.79883 4.23267 2.00553 3.81926 2.41895C3.40585 2.83236 3.19914 3.32878 3.19914 3.9082Z" fill="#212529"/>
</svg>
