<svg width="38" height="38" viewBox="0 0 38 38" fill="none" xmlns="http://www.w3.org/2000/svg">
<path d="M21 13L27 19L21 13ZM27 19L21 25L27 19ZM27 19H11H27ZM37 19C37 28.9412 28.9412 37 19 37C9.05888 37 1 28.9412 1 19C1 9.05888 9.05888 1 19 1C28.9412 1 37 9.05888 37 19Z" fill="white"/>
<path d="M21 13L27 19M27 19L21 25M27 19H11M37 19C37 28.9412 28.9412 37 19 37C9.05888 37 1 28.9412 1 19C1 9.05888 9.05888 1 19 1C28.9412 1 37 9.05888 37 19Z" stroke="#048F8B" stroke-width="2" stroke-linecap="round" stroke-linejoin="round"/>
</svg>
