<svg width="38" height="38" viewBox="0 0 38 38" fill="none" xmlns="http://www.w3.org/2000/svg">
<path d="M17 25L11 19L17 25ZM11 19L17 13L11 19ZM11 19H27H11ZM1 19C1 9.05888 9.05888 1 19 1C28.9412 1 37 9.05888 37 19C37 28.9412 28.9412 37 19 37C9.05888 37 1 28.9412 1 19Z" fill="white"/>
<path d="M17 25L11 19M11 19L17 13M11 19H27M1 19C1 9.05888 9.05888 1 19 1C28.9412 1 37 9.05888 37 19C37 28.9412 28.9412 37 19 37C9.05888 37 1 28.9412 1 19Z" stroke="#058E8A" stroke-width="2" stroke-linecap="round" stroke-linejoin="round"/>
</svg>
