<svg width="27" height="28" viewBox="0 0 27 28" fill="none" xmlns="http://www.w3.org/2000/svg">
<path d="M7.66203 7.60938L5.74797 4.15234C5.74797 4.15234 5.73495 4.1556 5.70891 4.16211H5.69914L5.68938 4.17188H5.67961C5.35409 4.28255 5.1246 4.48438 4.99113 4.77734C4.85767 5.07031 4.83163 5.37305 4.91301 5.68555C4.99439 5.99805 5.19458 6.24219 5.51359 6.41797L7.06633 7.27734L7.66203 7.60938ZM7.66203 7.60938L5.74797 4.15234H5.75773C6.10279 4.05469 6.43807 4.07422 6.76359 4.21094C7.08911 4.34766 7.33651 4.56576 7.50578 4.86523L7.55461 4.94336V5.04102V6.42773C7.55461 6.59049 7.56438 6.75977 7.58391 6.93555L7.66203 7.60938ZM8.6093 2.15039H15.6113H15.9726V2.50195V6.42773C15.9726 7.13086 15.7984 7.77376 15.4501 8.35645C15.1018 8.93913 14.6363 9.40462 14.0536 9.75293C13.471 10.1012 12.8248 10.2754 12.1152 10.2754C11.4055 10.2754 10.7594 10.1012 10.1767 9.75293C9.594 9.40462 9.1285 8.93913 8.7802 8.35645C8.43189 7.77376 8.25773 7.13086 8.25773 6.42773V2.50195V2.15039H8.6093ZM8.05266 8.48828C8.34563 9.06771 8.7509 9.56576 9.26848 9.98242C9.78605 10.3991 10.3704 10.6855 11.0214 10.8418L11.2851 10.9102V11.1836V12.0137C11.2851 12.6777 11.0312 13.2181 10.5234 13.6348L9.1757 14.7578L9.07805 14.8457H8.95109H6.86125C6.66594 14.8457 6.49829 14.901 6.35832 15.0117C6.21835 15.1224 6.13208 15.2591 6.09953 15.4219L4.95695 20.4121C4.95695 20.4121 4.95695 20.4154 4.95695 20.4219C4.95695 20.4219 4.95858 20.4219 4.96184 20.4219C4.96509 20.4219 4.96672 20.4219 4.96672 20.4219C4.97323 20.4349 4.98625 20.4414 5.00578 20.4414H18.9999C19.0129 20.4414 19.026 20.4349 19.039 20.4219C19.039 20.4154 19.039 20.4121 19.039 20.4121L17.9062 15.4219C17.8671 15.2591 17.7776 15.1224 17.6376 15.0117C17.4976 14.901 17.33 14.8457 17.1347 14.8457H15.2695H15.1425L15.0448 14.7578L13.6972 13.6348C13.1894 13.2051 12.9355 12.6647 12.9355 12.0137V11.1934V10.9102L13.1991 10.8418C13.8567 10.6855 14.4443 10.3991 14.9618 9.98242C15.4794 9.56576 15.8879 9.06445 16.1874 8.47852L16.2265 8.38086L16.3241 8.33203L18.9609 6.87695C19.2929 6.69466 19.5338 6.45052 19.6835 6.14453C19.8333 5.83854 19.8951 5.5179 19.8691 5.18262C19.843 4.84733 19.7307 4.54297 19.5321 4.26953C19.3336 3.99609 19.0553 3.80078 18.6972 3.68359C18.6842 3.67708 18.6549 3.66732 18.6093 3.6543H18.5995C18.1047 3.51758 17.6295 3.55664 17.1738 3.77148L16.6757 4.01562V3.45898V1.59375C16.6757 1.49609 16.6236 1.44727 16.5195 1.44727H7.70109C7.60344 1.44727 7.55461 1.49609 7.55461 1.59375V3.45898V4.01562L7.05656 3.78125C6.59432 3.5599 6.11581 3.51758 5.62102 3.6543H5.61125C5.56568 3.66732 5.53638 3.67708 5.52336 3.68359C5.16529 3.80078 4.88697 3.99609 4.6884 4.26953C4.48983 4.54297 4.37915 4.84733 4.35637 5.18262C4.33358 5.5179 4.39706 5.83854 4.5468 6.14453C4.69654 6.45052 4.93417 6.69466 5.25969 6.87695L7.90617 8.33203L8.00383 8.39062L8.05266 8.48828ZM16.7245 4.8457C16.9003 4.55273 17.1493 4.33952 17.4716 4.20605C17.7939 4.07259 18.1243 4.05469 18.4628 4.15234L18.3749 4.49414L18.4628 4.15234H18.4726L18.4921 4.16211H18.5116H18.5214L18.5312 4.17188H18.5409C18.8665 4.28255 19.096 4.48438 19.2294 4.77734C19.3629 5.07031 19.3889 5.37305 19.3075 5.68555C19.2262 5.99805 19.026 6.24219 18.707 6.41797L17.164 7.27734L16.5683 7.60938L16.6464 6.92578C16.6659 6.76302 16.6757 6.59701 16.6757 6.42773V5.03125V4.93359L16.7245 4.8457ZM14.0292 16.2031C14.2571 16.2031 14.4443 16.2829 14.5907 16.4424C14.7372 16.6019 14.8105 16.7891 14.8105 17.0039V18.2734C14.8105 18.4948 14.7356 18.6836 14.5859 18.8398C14.4361 18.9961 14.2506 19.0742 14.0292 19.0742H9.96672C9.73885 19.0742 9.55168 18.9945 9.4052 18.835C9.25871 18.6755 9.18547 18.4883 9.18547 18.2734V17.0039C9.18547 16.7826 9.26197 16.5938 9.41496 16.4375C9.56796 16.2812 9.75188 16.2031 9.96672 16.2031H14.0292ZM7.73039 8.64453C8.41398 9.98568 9.48169 10.832 10.9335 11.1836V12.0137C10.9335 12.5605 10.7252 13.0098 10.3085 13.3613L8.95109 14.4941H6.86125C6.34693 14.4941 6.00513 14.6862 5.83586 15.0703H5.81633L5.7675 15.2852L5.75773 15.3438V15.3535L4.62492 20.3242L4.61516 20.3438C4.61516 20.3633 4.6119 20.3828 4.60539 20.4023V20.4609L4.62492 20.5098C4.63794 20.5618 4.66073 20.6074 4.69328 20.6465C4.77141 20.7441 4.87557 20.793 5.00578 20.793H18.9999C19.1236 20.793 19.2245 20.7441 19.3027 20.6465C19.3222 20.627 19.3385 20.6009 19.3515 20.5684L19.3905 20.5V20.4219C19.3905 20.4154 19.3905 20.4089 19.3905 20.4023V20.373L19.3808 20.3535C19.3873 20.3665 19.3905 20.3763 19.3905 20.3828C19.3905 20.3763 19.3873 20.3665 19.3808 20.3535V20.3438L19.371 20.3145C19.3775 20.321 19.3808 20.3275 19.3808 20.334L19.3613 20.2461V20.2363L18.248 15.3438C18.1178 14.7773 17.7467 14.4941 17.1347 14.4941H15.2695L13.9218 13.3613C13.4986 13.0098 13.287 12.5605 13.287 12.0137V11.1934C14.7454 10.8353 15.8163 9.98242 16.4999 8.63477L19.0488 7.22852L19.1269 7.17969C19.9211 6.74349 20.2825 6.06966 20.2109 5.1582C20.1523 4.36393 19.7942 3.80404 19.1366 3.47852L19.1562 3.43945L18.7948 3.3418C18.7688 3.33529 18.7363 3.32552 18.6972 3.3125H18.6874C18.1145 3.15625 17.5611 3.20508 17.0273 3.45898V1.59375C17.0273 1.26172 16.858 1.0957 16.5195 1.0957H7.70109C7.36906 1.0957 7.20305 1.26172 7.20305 1.59375V3.45898C6.77336 3.25065 6.3274 3.17904 5.86516 3.24414V3.23438L5.66008 3.2832C5.61451 3.28971 5.57219 3.29948 5.53313 3.3125C5.48104 3.32552 5.44198 3.33529 5.41594 3.3418C4.55005 3.63477 4.0813 4.24023 4.00969 5.1582C3.93807 6.05664 4.29289 6.72721 5.07414 7.16992L7.73039 8.64453ZM6.37297 15.7832H6.38273L6.44133 15.4902C6.48039 15.2949 6.62036 15.1973 6.86125 15.1973H9.205L9.40031 15.0312L10.748 13.9082C11.3404 13.4199 11.6366 12.7884 11.6366 12.0137V10.6367L11.3241 10.5586C11.578 10.6042 11.8417 10.627 12.1152 10.627C12.3886 10.627 12.6523 10.6042 12.9062 10.5586L12.5839 10.6367V12.0137C12.5839 12.7754 12.8769 13.4036 13.4628 13.8984L14.8202 15.0312L15.0155 15.1973H17.1347C17.3691 15.1973 17.509 15.2982 17.5546 15.5L18.5995 20.0898H5.39641L6.37297 15.7832ZM8.6093 2.50195H15.6113V6.42773C15.6113 7.39128 15.2727 8.21484 14.5956 8.89844C13.9055 9.58203 13.0787 9.92383 12.1152 9.92383C11.1451 9.92383 10.3183 9.58203 9.63469 8.89844C8.95109 8.21484 8.6093 7.39128 8.6093 6.42773V2.50195ZM14.0292 15.8516H9.96672C9.21151 15.8516 8.83391 16.2357 8.83391 17.0039V18.2734C8.83391 19.0482 9.21151 19.4355 9.96672 19.4355H14.0292C14.3482 19.4355 14.6184 19.3184 14.8398 19.084C15.0546 18.8626 15.162 18.5924 15.162 18.2734V17.0039C15.162 16.2357 14.7844 15.8516 14.0292 15.8516ZM14.0292 16.5547C14.3157 16.5547 14.4589 16.7044 14.4589 17.0039V18.2734C14.4589 18.4036 14.4166 18.5111 14.332 18.5957C14.2473 18.6803 14.1464 18.7227 14.0292 18.7227H9.96672C9.68026 18.7227 9.53703 18.5729 9.53703 18.2734V17.0039C9.53703 16.7044 9.68026 16.5547 9.96672 16.5547H14.0292ZM17.0273 5.03125C17.3333 4.51042 17.7792 4.32812 18.3652 4.48438L18.4433 4.51367L18.3749 4.49414L18.4433 4.51367C18.7818 4.63086 18.9674 4.87826 18.9999 5.25586C19.0325 5.63346 18.886 5.91667 18.5605 6.10547L18.5409 6.11523C18.5474 6.10872 18.554 6.10547 18.5605 6.10547C18.5279 6.11849 18.5019 6.13151 18.4823 6.14453L18.5214 6.125L18.4823 6.14453L18.3554 6.21289L16.998 6.96484C17.0175 6.78906 17.0273 6.61003 17.0273 6.42773V5.03125ZM6.76359 6.71094L5.69914 6.125L5.67961 6.11523C5.34107 5.92643 5.18807 5.63997 5.22063 5.25586C5.24667 4.95638 5.37036 4.73828 5.59172 4.60156L6.76359 6.71094ZM7.20305 6.05664L6.30461 4.43555C6.68221 4.45508 6.98169 4.6569 7.20305 5.04102V6.05664ZM15.9726 8.11719C16.1223 7.79167 16.2232 7.44661 16.2753 7.08203L16.1679 8.01953H16.1581L15.9726 8.11719ZM7.66203 4.45508L7.90617 4.57227V4.85547L7.80852 4.68945C7.76294 4.60482 7.71411 4.52669 7.66203 4.45508ZM16.4218 4.66992L16.3241 4.83594V4.5625L16.5585 4.45508C16.5129 4.52018 16.4674 4.5918 16.4218 4.66992ZM13.9902 10.1973C14.3873 9.99544 14.7519 9.72852 15.0839 9.39648C15.2662 9.21419 15.429 9.02539 15.5722 8.83008C15.162 9.43555 14.6347 9.89128 13.9902 10.1973ZM10.2304 10.1973C9.59237 9.89128 9.06828 9.4388 8.65813 8.83984C8.80135 9.02865 8.96086 9.21419 9.13664 9.39648C9.47518 9.72852 9.83977 9.99544 10.2304 10.1973ZM8.07219 7.62891L8.00383 7.50195L7.955 7.0918C7.98104 7.27409 8.0201 7.45312 8.07219 7.62891ZM19.3808 20.3535V20.3438V20.334C19.3808 20.3405 19.3808 20.347 19.3808 20.3535Z" fill="#212529"/>
</svg>
