<svg width="16" height="16" viewBox="0 0 16 16" fill="none" xmlns="http://www.w3.org/2000/svg">
<path d="M2.66634 4H13.333C14.0689 4 14.6663 4.59745 14.6663 5.33333V10.6667C14.6663 11.4026 14.0689 12 13.333 12H2.66634C1.93045 12 1.33301 11.4026 1.33301 10.6667V5.33333C1.33301 4.59745 1.93045 4 2.66634 4V4" stroke="#1D7C79" stroke-width="1.33333" stroke-linecap="round" stroke-linejoin="round"/>
<path d="M6.66699 8.00008C6.66699 8.73597 7.26444 9.33341 8.00033 9.33341C8.73621 9.33341 9.33366 8.73597 9.33366 8.00008C9.33366 7.26419 8.73621 6.66675 8.00033 6.66675C7.26444 6.66675 6.66699 7.26419 6.66699 8.00008V8.00008" stroke="#1D7C79" stroke-width="1.33333" stroke-linecap="round" stroke-linejoin="round"/>
<path d="M4 8H4.00667M12 8H12.0067" stroke="#1D7C79" stroke-width="1.33333" stroke-linecap="round" stroke-linejoin="round"/>
</svg>
