<svg width="18" height="17" viewBox="0 0 18 17" fill="none" xmlns="http://www.w3.org/2000/svg">
<path d="M13.1944 12.2206V13.9853C13.1944 14.9599 12.3985 15.75 11.4167 15.75H2.52778C1.54594 15.75 0.75 14.9599 0.75 13.9853V7.80882C0.75 6.8342 1.54594 6.04412 2.52778 6.04412H4.30556M6.97222 2.51471H6.08333C5.10149 2.51471 4.30556 3.30479 4.30556 4.27941V10.4559C4.30556 11.4305 5.10149 12.2206 6.08333 12.2206H14.9722C15.9541 12.2206 16.75 11.4305 16.75 10.4559V4.27941C16.75 3.30479 15.9541 2.51471 14.9722 2.51471H14.0833M13.1944 6.04412L10.5278 8.69118M10.5278 8.69118L7.86111 6.04412M10.5278 8.69118V0.75" stroke="#048F8B" stroke-width="1.5" stroke-linecap="round" stroke-linejoin="round"/>
</svg>
