<svg width="28" height="28" viewBox="0 0 28 28" fill="none" xmlns="http://www.w3.org/2000/svg">
<path d="M24.0616 10.3828C24.0551 10.4154 24.0469 10.4463 24.0371 10.4756C24.0274 10.5049 24.0192 10.5326 24.0127 10.5586C23.7133 11.4896 23.2445 12.3229 22.6065 13.0586C22.8409 13.5013 22.9222 13.9668 22.8506 14.4551C22.7855 14.9499 22.5804 15.3763 22.2354 15.7344C21.975 16.0273 21.656 16.2292 21.2784 16.3398C21.2849 16.3464 21.2881 16.3545 21.2881 16.3643C21.2881 16.374 21.2881 16.3854 21.2881 16.3984C21.3207 16.737 21.2751 17.069 21.1514 17.3945C21.0212 17.7201 20.8259 17.9967 20.5655 18.2246C20.0772 18.6543 19.5075 18.8659 18.8565 18.8594C18.6742 19.3737 18.3454 19.7643 17.8702 20.0312C17.3298 20.3633 16.7504 20.4642 16.1319 20.334C16.1254 20.347 16.1189 20.3584 16.1123 20.3682C16.1058 20.3779 16.0993 20.3893 16.0928 20.4023C15.9366 20.6823 15.7282 20.9134 15.4678 21.0957C15.2074 21.2845 14.9177 21.4082 14.5987 21.4668C13.9867 21.584 13.4105 21.4863 12.8702 21.1738C12.5121 21.3757 12.128 21.4798 11.7178 21.4863C11.1449 21.4798 10.6566 21.2747 10.253 20.8711C9.92745 20.5716 9.70284 20.207 9.57914 19.7773C9.35128 19.7513 9.13318 19.6895 8.92484 19.5918C8.66443 19.4681 8.43656 19.3021 8.24125 19.0938C7.97432 18.8203 7.78552 18.5046 7.67484 18.1465C7.14099 18.0618 6.66573 17.8372 6.24906 17.4727C6.0212 17.2773 5.84867 17.0365 5.73148 16.75C5.6143 16.4701 5.56547 16.1803 5.585 15.8809C5.0251 15.7311 4.5824 15.4219 4.25688 14.9531C4.17224 14.8359 4.10063 14.7122 4.04203 14.582C4.03552 14.5625 4.02901 14.5413 4.0225 14.5186C4.01599 14.4958 4.00948 14.4746 4.00297 14.4551C3.97042 14.3704 3.94112 14.2858 3.91508 14.2012C3.90857 14.1686 3.90368 14.1393 3.90043 14.1133C3.89717 14.0872 3.89555 14.0612 3.89555 14.0352C3.88253 13.957 3.87276 13.8757 3.86625 13.791C3.86625 13.765 3.86625 13.7373 3.86625 13.708C3.86625 13.6787 3.86625 13.6478 3.86625 13.6152C3.87276 13.5176 3.87927 13.4427 3.88578 13.3906C3.89229 13.3516 3.90206 13.293 3.91508 13.2148C3.94112 13.1172 3.96065 13.0423 3.97367 12.9902C3.98669 12.9512 4.00622 12.8958 4.03227 12.8242C4.06482 12.7461 4.09737 12.6777 4.12992 12.6191C4.13643 12.6061 4.14294 12.5931 4.14945 12.5801C4.15596 12.5671 4.16247 12.554 4.16898 12.541C3.51143 11.5254 3.19242 10.4121 3.21195 9.20117C3.22497 7.99674 3.56677 6.89323 4.23734 5.89062L4.25688 5.86133L4.28617 5.82227C4.79398 5.08659 5.42875 4.48763 6.19047 4.02539C7.57719 3.28971 9.04203 3.05534 10.585 3.32227H10.6045L13.7588 3.83008C15.2172 3.51107 16.6918 3.30924 18.1827 3.22461H18.2705C18.3031 3.22461 18.3389 3.22298 18.378 3.21973C18.417 3.21647 18.4561 3.21484 18.4952 3.21484H18.5245C19.4034 3.20833 20.2334 3.40039 21.0147 3.79102C21.8024 4.18164 22.4567 4.72852 22.9776 5.43164C23.544 6.06315 23.9314 6.79232 24.1397 7.61914C24.3415 8.43945 24.3415 9.26302 24.1397 10.0898C24.1397 10.0964 24.1381 10.1045 24.1348 10.1143C24.1315 10.124 24.1299 10.1322 24.1299 10.1387C24.1234 10.1777 24.1136 10.2184 24.1006 10.2607C24.0876 10.3031 24.0746 10.3438 24.0616 10.3828ZM22.8506 9.19141L22.8604 9.16211C22.8604 9.11003 22.862 9.05957 22.8653 9.01074C22.8685 8.96191 22.8702 8.91146 22.8702 8.85938C22.8702 8.82682 22.8685 8.79427 22.8653 8.76172C22.862 8.72917 22.8604 8.69661 22.8604 8.66406C22.8604 8.61198 22.8571 8.55339 22.8506 8.48828C22.8376 8.36458 22.8213 8.2474 22.8018 8.13672L22.792 8.10742C22.6423 7.44987 22.3428 6.86719 21.8936 6.35938C21.3923 5.73438 20.7771 5.2526 20.0479 4.91406C19.5596 4.71224 19.0485 4.61784 18.5147 4.63086C18.4821 4.63086 18.4463 4.63086 18.4073 4.63086C18.3682 4.63086 18.3291 4.63086 18.2901 4.63086H18.2022C15.8975 4.76107 13.6579 5.20703 11.4834 5.96875C11.2491 6.04036 11.07 6.18359 10.9463 6.39844C10.8877 6.59375 10.9008 6.78255 10.9854 6.96484C11.0505 7.11458 11.1742 7.25456 11.3565 7.38477C11.5388 7.51497 11.7211 7.54427 11.9034 7.47266C12.3786 7.29688 12.8571 7.12923 13.3389 6.96973C13.8207 6.81022 14.1755 6.69466 14.4034 6.62305C14.5271 6.58398 14.654 6.56771 14.7842 6.57422C15.2269 6.57422 15.6045 6.72721 15.917 7.0332C15.9821 7.0918 16.2084 7.29199 16.5957 7.63379C16.9831 7.97559 17.4616 8.39714 18.0313 8.89844C18.601 9.39974 19.1999 9.92546 19.8282 10.4756C20.4564 11.0257 21.0472 11.5417 21.6006 12.0234C22.0303 11.5026 22.3623 10.9264 22.5967 10.2949L22.626 10.2266C22.7432 9.89453 22.8181 9.54948 22.8506 9.19141ZM5.29203 13.8789C5.31156 13.9701 5.34737 14.0547 5.39945 14.1328C5.47758 14.2565 5.57849 14.3509 5.70219 14.416C5.8324 14.4876 5.96911 14.5234 6.11234 14.5234L8.19242 12.4922C8.21846 12.4141 8.22497 12.3294 8.21195 12.2383C8.19893 12.1471 8.16964 12.0658 8.12406 11.9941C8.05245 11.9095 7.96781 11.8379 7.87016 11.7793C7.7725 11.7207 7.66833 11.6849 7.55766 11.6719C7.44698 11.6589 7.33956 11.6686 7.23539 11.7012C7.12471 11.7272 7.0238 11.776 6.93266 11.8477L5.6143 12.9609L5.60453 12.9707C5.54594 13.0293 5.49711 13.0911 5.45805 13.1562C5.42549 13.1953 5.39945 13.2344 5.37992 13.2734C5.35388 13.332 5.33109 13.3939 5.31156 13.459C5.30505 13.498 5.29529 13.5371 5.28227 13.5762C5.27576 13.6478 5.27576 13.7161 5.28227 13.7812C5.28227 13.8268 5.28552 13.8594 5.29203 13.8789ZM7.05961 15.5586C6.99451 15.6953 6.97172 15.8385 6.99125 15.9883C7.01078 16.138 7.06612 16.2715 7.15727 16.3887C7.26794 16.5059 7.39815 16.597 7.54789 16.6621C7.70414 16.7207 7.86365 16.7467 8.02641 16.7402L10.3311 14.4941C10.3311 14.4811 10.3343 14.4616 10.3409 14.4355C10.4255 14.2923 10.4613 14.1361 10.4483 13.9668C10.4157 13.804 10.3376 13.6673 10.2139 13.5566C10.0837 13.4134 9.92745 13.3158 9.74516 13.2637C9.60193 13.2441 9.46195 13.2669 9.32523 13.332L9.335 13.3418L7.05961 15.5586ZM9.0225 17.7363C9.06807 17.8861 9.1462 18.013 9.25688 18.1172C9.35453 18.2214 9.47172 18.2962 9.60844 18.3418C9.73865 18.3874 9.87536 18.3971 10.0186 18.3711L12.0791 16.3691C12.0922 16.291 12.0954 16.2096 12.0889 16.125C12.0433 15.9362 11.9457 15.7734 11.7959 15.6367C11.6853 15.5195 11.5518 15.4479 11.3955 15.4219L9.0225 17.7363ZM11.2295 19.8555C11.3663 19.9922 11.5355 20.0638 11.7373 20.0703C12.0108 20.0573 12.2484 19.9564 12.4502 19.7676C12.4633 19.7611 12.4746 19.7562 12.4844 19.7529C12.4942 19.7497 12.5023 19.7448 12.5088 19.7383L13.0362 19.123C13.2315 18.8952 13.3747 18.638 13.4659 18.3516C13.4919 18.2604 13.4919 18.1693 13.4659 18.0781C13.4203 17.9544 13.3487 17.8535 13.251 17.7754C13.1403 17.6712 13.0166 17.5964 12.8799 17.5508L10.9366 19.4453C11.0017 19.6016 11.0993 19.7383 11.2295 19.8555ZM14.3741 20.0703C14.4913 20.0443 14.5922 19.9954 14.6768 19.9238C14.7679 19.8522 14.8396 19.7676 14.8916 19.6699C14.9242 19.6048 14.9535 19.5397 14.9795 19.4746L14.667 19.1426C14.5238 19.4486 14.3448 19.735 14.1299 20.002L14.1202 20.0215L14.0616 20.0801C14.1722 20.0866 14.2764 20.0833 14.3741 20.0703ZM18.8858 17.4434C19.1788 17.4499 19.4359 17.349 19.6573 17.1406C19.7484 17.056 19.8135 16.9551 19.8526 16.8379C19.8916 16.7207 19.9014 16.6035 19.8819 16.4863C19.8754 16.3626 19.8558 16.2422 19.8233 16.125C19.8103 16.0859 19.7972 16.0501 19.7842 16.0176V15.998C19.7777 15.9785 19.7712 15.9557 19.7647 15.9297L18.5928 14.748C18.4561 14.6113 18.391 14.4453 18.3975 14.25C18.3975 14.0547 18.4659 13.8887 18.6026 13.752C18.7458 13.6152 18.9151 13.5469 19.1104 13.5469C19.3057 13.5469 19.4717 13.6185 19.6084 13.7617L20.8291 15.002C20.9789 14.9694 21.1026 14.8978 21.2002 14.7871C21.35 14.6374 21.4379 14.4551 21.4639 14.2402C21.4899 14.0254 21.4444 13.8268 21.3272 13.6445L21.1905 13.5273C20.8454 13.2214 20.4222 12.8503 19.9209 12.4141C19.4196 11.9779 18.8955 11.5205 18.3487 11.042C17.8018 10.5635 17.2842 10.1094 16.7959 9.67969C16.3077 9.25 15.8959 8.88704 15.5606 8.59082C15.2253 8.2946 15.0218 8.11393 14.9502 8.04883C14.9307 8.0293 14.9079 8.01302 14.8819 8C14.8493 7.98698 14.8168 7.98047 14.7842 7.98047C14.5889 8.03906 14.2585 8.14648 13.793 8.30273C13.3275 8.45898 12.8604 8.62174 12.3916 8.79102C11.8448 8.96029 11.3142 8.92122 10.7998 8.67383C10.2855 8.43294 9.91768 8.04883 9.69633 7.52148C9.57914 7.25456 9.51404 6.97786 9.50102 6.69141C9.49451 6.40495 9.54333 6.12826 9.6475 5.86133C9.86885 5.36003 10.2302 4.99544 10.7315 4.76758L10.4092 4.71875C9.17875 4.4974 8.00688 4.67318 6.89359 5.24609C6.30115 5.61068 5.80961 6.08268 5.41898 6.66211L5.39945 6.69141C4.91768 7.40104 4.65727 8.1888 4.6182 9.05469C4.57914 9.91406 4.76794 10.7246 5.18461 11.4863L6.05375 10.7539L6.07328 10.7344C6.31417 10.5456 6.57784 10.4154 6.8643 10.3438C7.15076 10.2591 7.44372 10.2363 7.7432 10.2754C8.03617 10.3145 8.31286 10.4089 8.57328 10.5586C8.8337 10.7083 9.05505 10.9004 9.23734 11.1348C9.4001 11.3561 9.51078 11.597 9.56938 11.8574C9.72563 11.8509 9.87862 11.8639 10.0284 11.8965C10.4841 12.0007 10.8747 12.222 11.2002 12.5605C11.5648 12.8991 11.7797 13.3125 11.8448 13.8008C11.8578 13.8919 11.861 13.9863 11.8545 14.084C12.2126 14.1882 12.5251 14.3737 12.792 14.6406C13.1566 14.9857 13.3845 15.4023 13.4756 15.8906C13.4952 16.0208 13.5049 16.151 13.5049 16.2812C13.7588 16.3919 13.9899 16.5417 14.1983 16.7305C14.4913 16.9909 14.6963 17.3066 14.8135 17.6777C14.833 17.7493 14.8493 17.8177 14.8623 17.8828C14.9926 17.8438 15.1228 17.8405 15.253 17.873C15.3832 17.9056 15.4939 17.9707 15.585 18.0684L16.4346 18.9668C16.7015 19.0124 16.9489 18.9603 17.1768 18.8105C17.3656 18.7064 17.4893 18.5501 17.5479 18.3418C17.5739 18.2702 17.5902 18.1986 17.5967 18.127L16.5811 17.0039C16.516 16.9323 16.4672 16.8542 16.4346 16.7695C16.4021 16.6784 16.389 16.5872 16.3955 16.4961C16.4021 16.3984 16.4248 16.3073 16.4639 16.2227C16.503 16.138 16.5583 16.0632 16.6299 15.998C16.695 15.9329 16.7732 15.8874 16.8643 15.8613C16.9554 15.8288 17.0466 15.8158 17.1377 15.8223C17.2354 15.8288 17.3265 15.8516 17.4112 15.8906C17.4958 15.9297 17.5674 15.985 17.626 16.0566L18.8858 17.4434Z" fill="#212529"/>
</svg>
