<svg width="28" height="28" viewBox="0 0 28 28" fill="none" xmlns="http://www.w3.org/2000/svg">
<path d="M6.8643 2.50195H20.5948C20.712 2.50195 20.7705 2.56055 20.7705 2.67773V12.1797C20.7705 12.2969 20.712 12.3555 20.5948 12.3555H6.8643C6.74711 12.3555 6.68852 12.2969 6.68852 12.1797V2.67773C6.68852 2.56055 6.74711 2.50195 6.8643 2.50195ZM20.9561 14.6699C20.9235 14.5332 20.8389 14.4648 20.7022 14.4648H6.76664C6.62341 14.4648 6.53552 14.5332 6.50297 14.6699L5.99516 16.9551C5.97563 17.0332 5.99353 17.1064 6.04887 17.1748C6.10421 17.2432 6.17419 17.2773 6.25883 17.2773H21.21C21.2946 17.2773 21.363 17.2448 21.4151 17.1797C21.4672 17.1146 21.4834 17.0397 21.4639 16.9551L20.9561 14.6699ZM10.087 19.3867C10.0284 19.3867 9.98116 19.3639 9.94535 19.3184C9.90954 19.2728 9.90141 19.224 9.92094 19.1719L10.1846 18.1172C10.2107 18.026 10.266 17.9805 10.3506 17.9805H17.1084C17.1996 17.9805 17.2549 18.026 17.2745 18.1172L17.5479 19.1719C17.5609 19.224 17.5495 19.2728 17.5137 19.3184C17.4779 19.3639 17.434 19.3867 17.3819 19.3867H10.087ZM24.2666 19.9336C24.2797 20.0117 24.2862 20.0898 24.2862 20.168C24.2862 20.5326 24.156 20.8483 23.8955 21.1152C23.6351 21.3757 23.3194 21.5059 22.9483 21.5059H4.52055C4.14945 21.5059 3.8337 21.3757 3.57328 21.1152C3.31286 20.8483 3.18266 20.5326 3.18266 20.168C3.18266 20.0898 3.18917 20.0117 3.20219 19.9336V19.9043V19.875L4.57914 13.3418V1.79883C4.57914 1.4082 4.71586 1.07617 4.9893 0.802734C5.26924 0.529297 5.60128 0.392578 5.98539 0.392578H21.4737C21.8643 0.392578 22.1963 0.529297 22.4698 0.802734C22.7432 1.07617 22.8799 1.4082 22.8799 1.79883V13.3418L24.2666 19.875V19.9043V19.9336ZM23.6221 20.0312L23.3194 20.0801L23.3584 20.0703L23.6221 20.0312ZM21.4737 1.79883H5.98539V13.0586H21.4737V1.79883ZM22.8702 20.0996L21.5323 13.7617H5.9268L4.59867 20.0996H22.8702Z" fill="#212529"/>
</svg>
