<svg width="26" height="22" viewBox="0 0 26 22" fill="none" xmlns="http://www.w3.org/2000/svg">
<path d="M25.3125 6.83594C25.3646 9.90885 24.2318 12.8516 21.9141 15.6641C20.1432 17.7474 18.3073 19.3229 16.4062 20.3906C15.6771 20.8073 15.2083 21.0156 15 21.0156C14.2187 21.0156 13.6198 20.4557 13.2031 19.3359C17.3177 16.6536 19.5052 13.8021 19.7656 10.7812C19.8698 9.94792 19.0885 8.69792 17.4219 7.03125C16.4323 5.91146 15.9375 4.90885 15.9375 4.02344C15.9375 2.92969 16.5625 1.99219 17.8125 1.21094C19.0885 0.403646 20.4948 0 22.0312 0C22.6302 0 23.2552 0.0911458 23.9062 0.273438C24.7396 1.54948 25.2083 3.73698 25.3125 6.83594ZM12.1094 6.83594C12.1614 9.90885 11.0286 12.8516 8.71093 15.6641C6.94009 17.7474 5.10416 19.3229 3.20311 20.3906C2.47395 20.8073 2.0052 21.0156 1.79686 21.0156C1.01561 21.0156 0.416655 20.4557 -1.14441e-05 19.3359C4.11457 16.6536 6.30207 13.8021 6.56249 10.7812C6.66666 9.94792 5.88541 8.69792 4.21874 7.03125C3.22916 5.91146 2.73436 4.90885 2.73436 4.02344C2.73436 2.92969 3.35936 1.99219 4.60936 1.21094C5.88541 0.403646 7.29166 0 8.82811 0C9.42707 0 10.0521 0.0911458 10.7031 0.273438C11.5364 1.54948 12.0052 3.73698 12.1094 6.83594Z" fill="#00948F"/>
</svg>
